<svg version="1.1" xmlns="http://www.w3.org/2000/svg" style="display: block;" viewBox="0 0 2048 2048" width="1024" height="1024" preserveAspectRatio="none" xmlns:c2pa="http://c2pa.org/manifest"><metadata><c2pa:manifest>AAAzs2p1bWIAAAAeanVtZGMycGEAEQAQgAAAqgA4m3EDYzJwYQAAADONanVtYgAAAEdqdW1kYzJtYQARABCAAACqADibcQN1cm46YzJwYTozNWE1YzkxZS02YjdiLTRhOTEtOGI5ZC1iMzA5ZDhjY2Q1MDQAAAAB4mp1bWIAAAApanVtZGMyYXMAEQAQgAAAqgA4m3EDYzJwYS5hc3NlcnRpb25zAAAAAO1qdW1iAAAAQWp1bWRjYm9yABEAEIAAAKoAOJtxE2MycGEuYWN0aW9ucy52MgAAAAAYYzJzaJ1l9M15d68JFNNs4MMP/XsAAACkY2JvcqFnYWN0aW9uc4GjZmFjdGlvbmxjMnBhLmNyZWF0ZWRxZGlnaXRhbFNvdXJjZVR5cGV4Rmh0dHA6Ly9jdi5pcHRjLm9yZy9uZXdzY29kZXMvZGlnaXRhbHNvdXJjZXR5cGUvdHJhaW5lZEFsZ29yaXRobWljTWVkaWFrZGVzY3JpcHRpb252Q3JlYXRlZCBieSBSZWNyYWZ0IEFJLgAAAMRqdW1iAAAAQGp1bWRjYm9yABEAEIAAAKoAOJtxE2MycGEuaGFzaC5kYXRhAAAAABhjMnNoMAVFvm9XhEfrEeGoGmFsOAAAAHxjYm9ypWpleGNsdXNpb25zgaJlc3RhcnQY22ZsZW5ndGgZRPBkbmFtZW5qdW1iZiBtYW5pZmVzdGNhbGdmc2hhMjU2ZGhhc2hYIHb3UXEzGmFz4p0nw3qhqvGgSU1UMybCQNgphcpidvX0Y3BhZEkAAAAAAAAAAAAAAAI0anVtYgAAACdqdW1kYzJjbAARABCAAACqADibcQNjMnBhLmNsYWltLnYyAAAAAgVjYm9ypmppbnN0YW5jZUlEeCx4bXA6aWlkOmUwMzEwZmEwLTVjY2YtNDQ4MC05ZmVlLTc4NzZkMjg3YzhkZXRjbGFpbV9nZW5lcmF0b3JfaW5mb6NkbmFtZWpyZWNyYWZ0LmFpZ3ZlcnNpb254KDgxY2U4MmUyYzVjM2NiZmJlOGM2ZmJlMTc5ZDVmOGQ5MWM0MDljZTF3b3JnLmNvbnRlbnRhdXRoLmMycGFfcnNmMC45MC43aXNpZ25hdHVyZXhNc2VsZiNqdW1iZj0vYzJwYS91cm46YzJwYTozNWE1YzkxZS02YjdiLTRhOTEtOGI5ZC1iMzA5ZDhjY2Q1MDQvYzJwYS5zaWduYXR1cmVyY3JlYXRlZF9hc3NlcnRpb25zgqJjdXJseCpzZWxmI2p1bWJmPWMycGEuYXNzZXJ0aW9ucy9jMnBhLmFjdGlvbnMudjJkaGFzaFggE4z4QtTZRmUUmLqoYqE05euL0rYwsiGPSlm3yh+0tXaiY3VybHgpc2VsZiNqdW1iZj1jMnBhLmFzc2VydGlvbnMvYzJwYS5oYXNoLmRhdGFkaGFzaFggJl1wSp99ofbmQQIPqvr+pnEkXswRja3A/IeZciZTC21oZGM6dGl0bGV4GlJlY3JhZnQgQUkgR2VuZXJhdGVkIEltYWdlY2FsZ2ZzaGEyNTYAAC8oanVtYgAAAChqdW1kYzJjcwARABCAAACqADibcQNjMnBhLnNpZ25hdHVyZQAAAC74Y2JvctKEWQPsogEmGCGCWQH0MIIB8DCCAZWgAwIBAgIUJcFH1Va4pZJDhzepwEtzPPNj2YMwCgYIKoZIzj0EAwIwQTELMAkGA1UEBhMCVVMxEzARBgNVBAoMClJlY3JhZnQgQUkxHTAbBgNVBAMMFFJlY3JhZnQgQzJQQSBSb290IENBMB4XDTI2MDkxMDE2NTIzNFoXDTI3MDkxMDE2NTIzNFowNzELMAkGA1UEBhMCVVMxEzARBgNVBAoMClJlY3JhZnQgQUkxEzARBgNVBAMMCnJlY3JhZnQuYWkwWTATBgcqhkjOPQIBBggqhkjOPQMBBwNCAASoOPdqG3YmNRdGd+dltfh1ikcE/nkLm8YK10H29taFa8iegusHYB1678yl5Bs18hLaV/Fhd+Ni32xAlnHdbimFo3UwczAMBgNVHRMBAf8EAjAAMA4GA1UdDwEB/wQEAwIGwDATBgNVHSUEDDAKBggrBgEFBQcDBDAdBgNVHQ4EFgQUgVwhvbEXPSSgCubOfUHxCtuoVAQwHwYDVR0jBBgwFoAUc9yF+sfWlRHeWv2Iucaec5jwdAgwCgYIKoZIzj0EAwIDSQAwRgIhAJltDpQN+vbXITLxb+8BNwSL6/5WktO4Sevkb0VXjtfWAiEAqhoz7z/sN32NxdnnZsQVTeu3P7CgGtJdXFx283fp08RZAewwggHoMIIBjaADAgECAhQAydo/NKOQWWu/4V5FktVQHX7jTDAKBggqhkjOPQQDAjBBMQswCQYDVQQGEwJVUzETMBEGA1UECgwKUmVjcmFmdCBBSTEdMBsGA1UEAwwUUmVjcmFmdCBDMlBBIFJvb3QgQ0EwHhcNMjYwOTEwMTY1MjM0WhcNMzYwOTA3MTY1MjM0WjBBMQswCQYDVQQGEwJVUzETMBEGA1UECgwKUmVjcmFmdCBBSTEdMBsGA1UEAwwUUmVjcmFmdCBDMlBBIFJvb3QgQ0EwWTATBgcqhkjOPQIBBggqhkjOPQMBBwNCAAQbQ+eF6fkpnHhTwrMxSBLh/JhROWkzsC8L8jN1r1Rlf8oECvzEFk3WujloPtNs3PLADriqR5rGtd+8giFuiTLno2MwYTAfBgNVHSMEGDAWgBRz3IX6x9aVEd5a/Yi5xp5zmPB0CDAPBgNVHRMBAf8EBTADAQH/MA4GA1UdDwEB/wQEAwIBhjAdBgNVHQ4EFgQUc9yF+sfWlRHeWv2Iucaec5jwdAgwCgYIKoZIzj0EAwIDSQAwRgIhAND2Z+xryBRnMbxk8eAzMcAq8bzl0rfA9Y2z7q5QoEUeAiEA6ZbI3e47h5clRZaARSOOotKXsK/YQMWC3vj91d3bmlOhY3BhZFkqtAAAAAAAAAAAAAAAAAAAAAAAAAAAAAAAAAAAAAAAAAAAAAAAAAAAAAAAAAAAAAAAAAAAAAAAAAAAAAAAAAAAAAAAAAAAAAAAAAAAAAAAAAAAAAAAAAAAAAAAAAAAAAAAAAAAAAAAAAAAAAAAAAAAAAAAAAAAAAAAAAAAAAAAAAAAAAAAAAAAAAAAAAAAAAAAAAAAAAAAAAAAAAAAAAAAAAAAAAAAAAAAAAAAAAAAAAAAAAAAAAAAAAAAAAAAAAAAAAAAAAAAAAAAAAAAAAAAAAAAAAAAAAAAAAAAAAAAAAAAAAAAAAAAAAAAAAAAAAAAAAAAAAAAAAAAAAAAAAAAAAAAAAAAAAAAAAAAAAAAAAAAAAAAAAAAAAAAAAAAAAAAAAAAAAAAAAAAAAAAAAAAAAAAAAAAAAAAAAAAAAAAAAAAAAAAAAAAAAAAAAAAAAAAAAAAAAAAAAAAAAAAAAAAAAAAAAAAAAAAAAAAAAAAAAAAAAAAAAAAAAAAAAAAAAAAAAAAAAAAAAAAAAAAAAAAAAAAAAAAAAAAAAAAAAAAAAAAAAAAAAAAAAAAAAAAAAAAAAAAAAAAAAAAAAAAAAAAAAAAAAAAAAAAAAAAAAAAAAAAAAAAAAAAAAAAAAAAAAAAAAAAAAAAAAAAAAAAAAAAAAAAAAAAAAAAAAAAAAAAAAAAAAAAAAAAAAAAAAAAAAAAAAAAAAAAAAAAAAAAAAAAAAAAAAAAAAAAAAAAAAAAAAAAAAAAAAAAAAAAAAAAAAAAAAAAAAAAAAAAAAAAAAAAAAAAAAAAAAAAAAAAAAAAAAAAAAAAAAAAAAAAAAAAAAAAAAAAAAAAAAAAAAAAAAAAAAAAAAAAAAAAAAAAAAAAAAAAAAAAAAAAAAAAAAAAAAAAAAAAAAAAAAAAAAAAAAAAAAAAAAAAAAAAAAAAAAAAAAAAAAAAAAAAAAAAAAAAAAAAAAAAAAAAAAAAAAAAAAAAAAAAAAAAAAAAAAAAAAAAAAAAAAAAAAAAAAAAAAAAAAAAAAAAAAAAAAAAAAAAAAAAAAAAAAAAAAAAAAAAAAAAAAAAAAAAAAAAAAAAAAAAAAAAAAAAAAAAAAAAAAAAAAAAAAAAAAAAAAAAAAAAAAAAAAAAAAAAAAAAAAAAAAAAAAAAAAAAAAAAAAAAAAAAAAAAAAAAAAAAAAAAAAAAAAAAAAAAAAAAAAAAAAAAAAAAAAAAAAAAAAAAAAAAAAAAAAAAAAAAAAAAAAAAAAAAAAAAAAAAAAAAAAAAAAAAAAAAAAAAAAAAAAAAAAAAAAAAAAAAAAAAAAAAAAAAAAAAAAAAAAAAAAAAAAAAAAAAAAAAAAAAAAAAAAAAAAAAAAAAAAAAAAAAAAAAAAAAAAAAAAAAAAAAAAAAAAAAAAAAAAAAAAAAAAAAAAAAAAAAAAAAAAAAAAAAAAAAAAAAAAAAAAAAAAAAAAAAAAAAAAAAAAAAAAAAAAAAAAAAAAAAAAAAAAAAAAAAAAAAAAAAAAAAAAAAAAAAAAAAAAAAAAAAAAAAAAAAAAAAAAAAAAAAAAAAAAAAAAAAAAAAAAAAAAAAAAAAAAAAAAAAAAAAAAAAAAAAAAAAAAAAAAAAAAAAAAAAAAAAAAAAAAAAAAAAAAAAAAAAAAAAAAAAAAAAAAAAAAAAAAAAAAAAAAAAAAAAAAAAAAAAAAAAAAAAAAAAAAAAAAAAAAAAAAAAAAAAAAAAAAAAAAAAAAAAAAAAAAAAAAAAAAAAAAAAAAAAAAAAAAAAAAAAAAAAAAAAAAAAAAAAAAAAAAAAAAAAAAAAAAAAAAAAAAAAAAAAAAAAAAAAAAAAAAAAAAAAAAAAAAAAAAAAAAAAAAAAAAAAAAAAAAAAAAAAAAAAAAAAAAAAAAAAAAAAAAAAAAAAAAAAAAAAAAAAAAAAAAAAAAAAAAAAAAAAAAAAAAAAAAAAAAAAAAAAAAAAAAAAAAAAAAAAAAAAAAAAAAAAAAAAAAAAAAAAAAAAAAAAAAAAAAAAAAAAAAAAAAAAAAAAAAAAAAAAAAAAAAAAAAAAAAAAAAAAAAAAAAAAAAAAAAAAAAAAAAAAAAAAAAAAAAAAAAAAAAAAAAAAAAAAAAAAAAAAAAAAAAAAAAAAAAAAAAAAAAAAAAAAAAAAAAAAAAAAAAAAAAAAAAAAAAAAAAAAAAAAAAAAAAAAAAAAAAAAAAAAAAAAAAAAAAAAAAAAAAAAAAAAAAAAAAAAAAAAAAAAAAAAAAAAAAAAAAAAAAAAAAAAAAAAAAAAAAAAAAAAAAAAAAAAAAAAAAAAAAAAAAAAAAAAAAAAAAAAAAAAAAAAAAAAAAAAAAAAAAAAAAAAAAAAAAAAAAAAAAAAAAAAAAAAAAAAAAAAAAAAAAAAAAAAAAAAAAAAAAAAAAAAAAAAAAAAAAAAAAAAAAAAAAAAAAAAAAAAAAAAAAAAAAAAAAAAAAAAAAAAAAAAAAAAAAAAAAAAAAAAAAAAAAAAAAAAAAAAAAAAAAAAAAAAAAAAAAAAAAAAAAAAAAAAAAAAAAAAAAAAAAAAAAAAAAAAAAAAAAAAAAAAAAAAAAAAAAAAAAAAAAAAAAAAAAAAAAAAAAAAAAAAAAAAAAAAAAAAAAAAAAAAAAAAAAAAAAAAAAAAAAAAAAAAAAAAAAAAAAAAAAAAAAAAAAAAAAAAAAAAAAAAAAAAAAAAAAAAAAAAAAAAAAAAAAAAAAAAAAAAAAAAAAAAAAAAAAAAAAAAAAAAAAAAAAAAAAAAAAAAAAAAAAAAAAAAAAAAAAAAAAAAAAAAAAAAAAAAAAAAAAAAAAAAAAAAAAAAAAAAAAAAAAAAAAAAAAAAAAAAAAAAAAAAAAAAAAAAAAAAAAAAAAAAAAAAAAAAAAAAAAAAAAAAAAAAAAAAAAAAAAAAAAAAAAAAAAAAAAAAAAAAAAAAAAAAAAAAAAAAAAAAAAAAAAAAAAAAAAAAAAAAAAAAAAAAAAAAAAAAAAAAAAAAAAAAAAAAAAAAAAAAAAAAAAAAAAAAAAAAAAAAAAAAAAAAAAAAAAAAAAAAAAAAAAAAAAAAAAAAAAAAAAAAAAAAAAAAAAAAAAAAAAAAAAAAAAAAAAAAAAAAAAAAAAAAAAAAAAAAAAAAAAAAAAAAAAAAAAAAAAAAAAAAAAAAAAAAAAAAAAAAAAAAAAAAAAAAAAAAAAAAAAAAAAAAAAAAAAAAAAAAAAAAAAAAAAAAAAAAAAAAAAAAAAAAAAAAAAAAAAAAAAAAAAAAAAAAAAAAAAAAAAAAAAAAAAAAAAAAAAAAAAAAAAAAAAAAAAAAAAAAAAAAAAAAAAAAAAAAAAAAAAAAAAAAAAAAAAAAAAAAAAAAAAAAAAAAAAAAAAAAAAAAAAAAAAAAAAAAAAAAAAAAAAAAAAAAAAAAAAAAAAAAAAAAAAAAAAAAAAAAAAAAAAAAAAAAAAAAAAAAAAAAAAAAAAAAAAAAAAAAAAAAAAAAAAAAAAAAAAAAAAAAAAAAAAAAAAAAAAAAAAAAAAAAAAAAAAAAAAAAAAAAAAAAAAAAAAAAAAAAAAAAAAAAAAAAAAAAAAAAAAAAAAAAAAAAAAAAAAAAAAAAAAAAAAAAAAAAAAAAAAAAAAAAAAAAAAAAAAAAAAAAAAAAAAAAAAAAAAAAAAAAAAAAAAAAAAAAAAAAAAAAAAAAAAAAAAAAAAAAAAAAAAAAAAAAAAAAAAAAAAAAAAAAAAAAAAAAAAAAAAAAAAAAAAAAAAAAAAAAAAAAAAAAAAAAAAAAAAAAAAAAAAAAAAAAAAAAAAAAAAAAAAAAAAAAAAAAAAAAAAAAAAAAAAAAAAAAAAAAAAAAAAAAAAAAAAAAAAAAAAAAAAAAAAAAAAAAAAAAAAAAAAAAAAAAAAAAAAAAAAAAAAAAAAAAAAAAAAAAAAAAAAAAAAAAAAAAAAAAAAAAAAAAAAAAAAAAAAAAAAAAAAAAAAAAAAAAAAAAAAAAAAAAAAAAAAAAAAAAAAAAAAAAAAAAAAAAAAAAAAAAAAAAAAAAAAAAAAAAAAAAAAAAAAAAAAAAAAAAAAAAAAAAAAAAAAAAAAAAAAAAAAAAAAAAAAAAAAAAAAAAAAAAAAAAAAAAAAAAAAAAAAAAAAAAAAAAAAAAAAAAAAAAAAAAAAAAAAAAAAAAAAAAAAAAAAAAAAAAAAAAAAAAAAAAAAAAAAAAAAAAAAAAAAAAAAAAAAAAAAAAAAAAAAAAAAAAAAAAAAAAAAAAAAAAAAAAAAAAAAAAAAAAAAAAAAAAAAAAAAAAAAAAAAAAAAAAAAAAAAAAAAAAAAAAAAAAAAAAAAAAAAAAAAAAAAAAAAAAAAAAAAAAAAAAAAAAAAAAAAAAAAAAAAAAAAAAAAAAAAAAAAAAAAAAAAAAAAAAAAAAAAAAAAAAAAAAAAAAAAAAAAAAAAAAAAAAAAAAAAAAAAAAAAAAAAAAAAAAAAAAAAAAAAAAAAAAAAAAAAAAAAAAAAAAAAAAAAAAAAAAAAAAAAAAAAAAAAAAAAAAAAAAAAAAAAAAAAAAAAAAAAAAAAAAAAAAAAAAAAAAAAAAAAAAAAAAAAAAAAAAAAAAAAAAAAAAAAAAAAAAAAAAAAAAAAAAAAAAAAAAAAAAAAAAAAAAAAAAAAAAAAAAAAAAAAAAAAAAAAAAAAAAAAAAAAAAAAAAAAAAAAAAAAAAAAAAAAAAAAAAAAAAAAAAAAAAAAAAAAAAAAAAAAAAAAAAAAAAAAAAAAAAAAAAAAAAAAAAAAAAAAAAAAAAAAAAAAAAAAAAAAAAAAAAAAAAAAAAAAAAAAAAAAAAAAAAAAAAAAAAAAAAAAAAAAAAAAAAAAAAAAAAAAAAAAAAAAAAAAAAAAAAAAAAAAAAAAAAAAAAAAAAAAAAAAAAAAAAAAAAAAAAAAAAAAAAAAAAAAAAAAAAAAAAAAAAAAAAAAAAAAAAAAAAAAAAAAAAAAAAAAAAAAAAAAAAAAAAAAAAAAAAAAAAAAAAAAAAAAAAAAAAAAAAAAAAAAAAAAAAAAAAAAAAAAAAAAAAAAAAAAAAAAAAAAAAAAAAAAAAAAAAAAAAAAAAAAAAAAAAAAAAAAAAAAAAAAAAAAAAAAAAAAAAAAAAAAAAAAAAAAAAAAAAAAAAAAAAAAAAAAAAAAAAAAAAAAAAAAAAAAAAAAAAAAAAAAAAAAAAAAAAAAAAAAAAAAAAAAAAAAAAAAAAAAAAAAAAAAAAAAAAAAAAAAAAAAAAAAAAAAAAAAAAAAAAAAAAAAAAAAAAAAAAAAAAAAAAAAAAAAAAAAAAAAAAAAAAAAAAAAAAAAAAAAAAAAAAAAAAAAAAAAAAAAAAAAAAAAAAAAAAAAAAAAAAAAAAAAAAAAAAAAAAAAAAAAAAAAAAAAAAAAAAAAAAAAAAAAAAAAAAAAAAAAAAAAAAAAAAAAAAAAAAAAAAAAAAAAAAAAAAAAAAAAAAAAAAAAAAAAAAAAAAAAAAAAAAAAAAAAAAAAAAAAAAAAAAAAAAAAAAAAAAAAAAAAAAAAAAAAAAAAAAAAAAAAAAAAAAAAAAAAAAAAAAAAAAAAAAAAAAAAAAAAAAAAAAAAAAAAAAAAAAAAAAAAAAAAAAAAAAAAAAAAAAAAAAAAAAAAAAAAAAAAAAAAAAAAAAAAAAAAAAAAAAAAAAAAAAAAAAAAAAAAAAAAAAAAAAAAAAAAAAAAAAAAAAAAAAAAAAAAAAAAAAAAAAAAAAAAAAAAAAAAAAAAAAAAAAAAAAAAAAAAAAAAAAAAAAAAAAAAAAAAAAAAAAAAAAAAAAAAAAAAAAAAAAAAAAAAAAAAAAAAAAAAAAAAAAAAAAAAAAAAAAAAAAAAAAAAAAAAAAAAAAAAAAAAAAAAAAAAAAAAAAAAAAAAAAAAAAAAAAAAAAAAAAAAAAAAAAAAAAAAAAAAAAAAAAAAAAAAAAAAAAAAAAAAAAAAAAAAAAAAAAAAAAAAAAAAAAAAAAAAAAAAAAAAAAAAAAAAAAAAAAAAAAAAAAAAAAAAAAAAAAAAAAAAAAAAAAAAAAAAAAAAAAAAAAAAAAAAAAAAAAAAAAAAAAAAAAAAAAAAAAAAAAAAAAAAAAAAAAAAAAAAAAAAAAAAAAAAAAAAAAAAAAAAAAAAAAAAAAAAAAAAAAAAAAAAAAAAAAAAAAAAAAAAAAAAAAAAAAAAAAAAAAAAAAAAAAAAAAAAAAAAAAAAAAAAAAAAAAAAAAAAAAAAAAAAAAAAAAAAAAAAAAAAAAAAAAAAAAAAAAAAAAAAAAAAAAAAAAAAAAAAAAAAAAAAAAAAAAAAAAAAAAAAAAAAAAAAAAAAAAAAAAAAAAAAAAAAAAAAAAAAAAAAAAAAAAAAAAAAAAAAAAAAAAAAAAAAAAAAAAAAAAAAAAAAAAAAAAAAAAAAAAAAAAAAAAAAAAAAAAAAAAAAAAAAAAAAAAAAAAAAAAAAAAAAAAAAAAAAAAAAAAAAAAAAAAAAAAAAAAAAAAAAAAAAAAAAAAAAAAAAAAAAAAAAAAAAAAAAAAAAAAAAAAAAAAAAAAAAAAAAAAAAAAAAAAAAAAAAAAAAAAAAAAAAAAAAAAAAAAAAAAAAAAAAAAAAAAAAAAAAAAAAAAAAAAAAAAAAAAAAAAAAAAAAAAAAAAAAAAAAAAAAAAAAAAAAAAAAAAAAAAAAAAAAAAAAAAAAAAAAAAAAAAAAAAAAAAAAAAAAAAAAAAAAAAAAAAAAAAAAAAAAAAAAAAAAAAAAAAAAAAAAAAAAAAAAAAAAAAAAAAAAAAAAAAAAAAAAAAAAAAAAAAAAAAAAAAAAAAAAAAAAAAAAAAAAAAAAAAAAAAAAAAAAAAAAAAAAAAAAAAAAAAAAAAAAAAAAAAAAAAAAAAAAAAAAAAAAAAAAAAAAAAAAAAAAAAAAAAAAAAAAAAAAAAAAAAAAAAAAAAAAAAAAAAAAAAAAAAAAAAAAAAAAAAAAAAAAAAAAAAAAAAAAAAAAAAAAAAAAAAAAAAAAAAAAAAAAAAAAAAAAAAAAAAAAAAAAAAAAAAAAAAAAAAAAAAAAAAAAAAAAAAAAAAAAAAAAAAAAAAAAAAAAAAAAAAAAAAAAAAAAAAAAAAAAAAAAAAAAAAAAAAAAAAAAAAAAAAAAAAAAAAAAAAAAAAAAAAAAAAAAAAAAAAAAAAAAAAAAAAAAAAAAAAAAAAAAAAAAAAAAAAAAAAAAAAAAAAAAAAAAAAAAAAAAAAAAAAAAAAAAAAAAAAAAAAAAAAAAAAAAAAAAAAAAAAAAAAAAAAAAAAAAAAAAAAAAAAAAAAAAAAAAAAAAAAAAAAAAAAAAAAAAAAAAAAAAAAAAAAAAAAAAAAAAAAAAAAAAAAAAAAAAAAAAAAAAAAAAAAAAAAAAAAAAAAAAAAAAAAAAAAAAAAAAAAAAAAAAAAAAAAAAAAAAAAAAAAAAAAAAAAAAAAAAAAAAAAAAAAAAAAAAAAAAAAAAAAAAAAAAAAAAAAAAAAAAAAAAAAAAAAAAAAAAAAAAAAAAAAAAAAAAAAAAAAAAAAAAAAAAAAAAAAAAAAAAAAAAAAAAAAAAAAAAAAAAAAAAAAAAAAAAAAAAAAAAAAAAAAAAAAAAAAAAAAAAAAAAAAAAAAAAAAAAAAAAAAAAAAAAAAAAAAAAAAAAAAAAAAAAAAAAAAAAAAAAAAAAAAAAAAAAAAAAAAAAAAAAAAAAAAAAAAAAAAAAAAAAAAAAAAAAAAAAAAAAAAAAAAAAAAAAAAAAAAAAAAAAAAAAAAAAAAAAAAAAAAAAAAAAAAAAAAAAAAAAAAAAAAAAAAAAAAAAAAAAAAAAAAAAAAAAAAAAAAAAAAAAAAAAAAAAAAAAAAAAAAAAAAAAAAAAAAAAAAAAAAAAAAAAAAAAAAAAAAAAAAAAAAAAAAAAAAAAAAAAAAAAAAAAAAAAAAAAAAAAAAAAAAAAAAAAAAAAAAAAAAAAAAAAAAAAAAAAAAAAAAAAAAAAAAAAAAAAAAAAAAAAAAAAAAAAAAAAAAAAAAAAAAAAAAAAAAAAAAAAAAAAAAAAAAAAAAAAAAAAAAAAAAAAAAAAAAAAAAAAAAAAAAAAAAAAAAAAAAAAAAAAAAAAAAAAAAAAAAAAAAAAAAAAAAAAAAAAAAAAAAAAAAAAAAAAAAAAAAAAAAAAAAAAAAAAAAAAAAAAAAAAAAAAAAAAAAAAAAAAAAAAAAAAAAAAAAAAAAAAAAAAAAAAAAAAAAAAAAAAAAAAAAAAAAAAAAAAAAAAAAAAAAAAAAAAAAAAAAAAAAAAAAAAAAAAAAAAAAAAAAAAAAAAAAAAAAAAAAAAAAAAAAAAAAAAAAAAAAAAAAAAAAAAAAAAAAAAAAAAAAAAAAAAAAAAAAAAAAAAAAAAAAAAAAAAAAAAAAAAAAAAAAAAAAAAAAAAAAAAAAAAAAAAAAAAAAAAAAAAAAAAAAAAAAAAAAAAAAAAAAAAAAAAAAAAAAAAAAAAAAAAAAAAAAAAAAAAAAAAAAAAAAAAAAAAAAAAAAAAAAAAAAAAAAAAAAAAAAAAAAAAAAAAAAAAAAAAAAAAAAAAAAAAAAAAAAAAAAAAAAAAAAAAAAAAAAAAAAAAAAAAAAAAAAAAAAAAAAAAAAAAAAAAAAAAAAAAAAAAAAAAAAAAAAAAAAAAAAAAAAAAAAAAAAAAAAAAAAAAAAAAAAAAAAAAAAAAAAAAAAAAAAAAAAAAAAAAAAAAAAAAAAAAAAAAAAAAAAAAAAAAAAAAAAAAAAAAAAAAAAAAAAAAAAAAAAAAAAAAAAAAAAAAAAAAAAAAAAAAAAAAAAAAAAAAAAAAAAAAAAAAAAAAAAAAAAAAAAAAAAAAAAAAAAAAAAAAAAAAAAAAAAAAAAAAAAAAAAAAAAAAAAAAAAAAAAAAAAAAAAAAAAAAAAAAAAAAAAAAAAAAAAAAAAAAAAAAAAAAAAAAAAAAAAAAAAAAAAAAAAAAAAAAAAAAAAAAAAAAAAAAAAAAAAAAAAAAAAAAAAAAAAAAAAAAAAAAAAAAAAAAAAAAAAAAAAAAAAAAAAAAAAAAAAAAAAAAAAAAAAAAAAAAAAAAAAAAAAAAAAAAAAAAAAAAAAAAAAAAAAAAAAAAAAAAAAAAAAAAAAAAAAAAAAAAAAAAAAAAAAAAAAAAAAAAAAAAAAAAAAAAAAAAAAAAAAAAAAAAAAAAAAAAAAAAAAAAAAAAAAAAAAAAAAAAAAAAAAAAAAAAAAAAAAAAAAAAAAAAAAAAAAAAAAAAAAAAAAAAAAAAAAAAAAAAAAAAAAAAAAAAAAAAAAAAAAAAAAAAAAAAAAAAAAAAAAAAAAAAAAAAAAAAAAAAAAAAAAAAAAAAAAAAAAAAAAAAAAAAAAAAAAAAAAAAAAAAAAAAAAAAAAAAAAAAAAAAAAAAAAAAAAAAAAAAAAAAAAAAAAAAAAAAAAAAAAAAAAAAAAAAAAAAAAAAAAAAAAAAAAAAAAAAAAAAAAAAAAAAAAAAAAAAAAAAAAAAAAAAAAAAAAAAAAAAAAAAAAAAAAAAAAAAAAAAAAAAAAAAAAAAAAAAAAAAAAAAAAAAAAAAAAAAAAAAAAAAAAAAAAAAAAAAAAAAAAAAAAAAAAAAAAAAAAAAAAAAAAAAAAAAAAAAAAAAAAAAAAAAAAAAAAAAAAAAAAAAAAAAAAAAAAAAAAAAAAAAAAAAAAAAAAAAAAAAAAAAAAAAAAAAAAAAAAAAAAAAAAAAAAAAAAAAAAAAAAAAAAAAAAAAAAAAAAAAAAAAAAAAAAAAAAAAAAAAAAAAAAAAAAAAAAAAAAAAAAAAAAAAAAAAAAAAAAAAAAAAAAAAAAAAAAAAAAAAAAAAAAAAAAAAAAAAAAAAAAAAAAAAAAAAAAAAAAAAAAAAAAAAAAAAAAAAAAAAAAAAAAAAAAAAAAAAAAAAAAAAAAAAAAAAAAAAAAAAAAAAAAAAAAAAAAAAAAAAAAAAAAAAAAAAAAAAAAAAAAAAAAAAAAAAAAAAAAAAAAAAAAAAAAAAAAAAAAAAAAAAAAAAAAAAAAAAAAAAAAAAAAAAAAAAAAAAAAAAAAAAAAAAAAAAAAAAAAAAAAAAAAAAAAAAAAAAAAAAAAAAAAAAAAAAAAAAAAAAAAAAAAAAAAAAAAAAAAAAAAAAAAAAAAAAAAAAAAAAAAAAAAAAAAAAAAAAAAAAAAAAAAAAAAAAAAAAAAAAAAAAAAAAAAAAAAAAAAAAAAAAAAAAAAAAAAAAAAAAAAAAAAAAAAAAAAAAAAAAAAAAAAAAAAAAAAAAAAAAAAAAAAAAAAAAAAAAAAAAAAAAAAAAAAAAAAAAAAAAAAAAAAAAAAAAAAAAAAAAAAAAAAAAAAAAAAAAAAAAAAAAAAAAAAAAAAAAAAAAAAAAAAAAAAAAAAAAAAAAAAAAAAAAAAAAAAAAAAAAAAAAAAAAAAAAAAAAAAAAAAAAAAAAAAAAAAAAAAAAAAAAAAAAAAAAAAAAAAAAAAAAAAAAAAAAAAAAAAAAAAAAAAAAAAAAAAAAAAAAAAAAAAAAAAAAAAAAAAAAAAAAAAAAAAAAAAAAAAAAAAAAAAAAAAAAAAAAAAAAAAAAAAAAAAAAAAAAAAAAAAAAAAAAAAAAAAAAAAAAAAAAAAAAAAAAAAAAAAAAAAAAAAAAAAAAAAAAAAAAAAAAAAAAAAAAAAAAAAAAAAAAAAAAAAAAAAAAAAAAAAAAAAAAAAAAAAAAAAAAAAAAAAAAAAAAAAAAAAAAAAAAAAAAAAAAAAAAAAAAAAAAAAAAAAAAAAAAAAAAAAAAAAAAAAAAAAAAAAAAAAAAAAAAAAAAAAAAAAAAAAAAAAAAAAAAAAAAAAAAAAAAAAAAAAAAAAAAAAAAAAAAAAAAAAAAAAAAAAAAAAAAAAAAAAAAAAAAAAAAAAAAAAAAAAAAAAAAAAAAAAAAAAAAAAAAAAAAAAAAAAAAAAAAAAAAAAAAAAAAAAAAAAAAAAAAAAAAAAAAAAAAAAAAAAAAAAAAAAAAAAAAAAAAAAAAAAAAAAAAAAAAAAAAAAAAAAAAAAAAAAAAAAAAAAAAAAAAAAAAAAAAAAAAAAAAAAAAAAAAAAAAAAAAAAAAAAAAAAAAAAAAAAAAAAAAAAAAAAAAAAAAAAAAAAAAAAAAAAAAAAAAAAAAAAAAAAAAAAAAAAAAAAAAAAAAAAAAAAAAAAAAAAAAAAAAAAAAAAAAAAAAAAAAAAAAAAAAAAAAAAAAAAAAAAAAAAAAAAAAAAAAAAAAAAAAAAAAAAAAAAAAAAAAAAAAAAAAAAAAAAAAAAAAAAAAAAAAAAAAAAAAAAAAAAAAAAAAAAAAAAAAAAAAAAAAAAAAAAAAAAAAAAAAAAAAAAAAAAAAAAAAAAAAAAAAAAAAAAAAAAAAAAAAAAAAAAAAAAAAAAAAAAAAAAAAAAAAAAAAAAAAAAAAAAAAAAAAAAAAAAAAAAAAAAAAAAAAAAAAAAAAAAAAAAAAAAAAAAAAAAAAAAAAAAAAAAAAAAAAAAAAAAAAAAAAAAAAAAAAAAAAAAAAAAAAAAAAAAAAAAAAAAAAAAAAAAAAAAAAAAAAAAAAAAAAAAAAAAAAAAAAAAAAAAAAAAAAAAAAAAAAAAAAAAAAAAAAAAAAAAAAAAAAAAAAAAAAAAAAAAAAAAAAAAAAAAAAAAAAAAAAAAAAAAAAAAAAAAAAAAAAAAAAAAAAAAAAAAAAAAAAAAAAAAAAAAAAAAAAAAAAAAAAAAAAAAAAAAAAAAAAAAAAAAAAAAAAAAAAAAAAAAAAAAAAAAAAAAAAAAAAAAAAAAAAAAAAAAAAAAAAAAAAAAAAAAAAAAAAAAAAAAAAAAAAAAAAAAAAAAAAAAAAAAAAAAAAAAAAAAAAAAAAAAAAAAAAAAAAAAAAAAAAAAAAAAAAAAAAAAAAAAAAAAAAAAAAAAAAAAAAAAAAAAAAAAAAAAAAAAAAAAAAAAAAAAAAAAAAAAAAAAAAAAAAAAAAAAAAAAAAAAAAAAAAAAAAAAAAAAAAAAAAAAAAAAAAAAAAAAAAAAAAAAAAAAAAAAAAAAAAAAAAAAAAAAAAAAAAAAAAAAAAAAAAAAAAAAAAAAAAAAAAAAAAAAAAAAAAAAAAAAAAAAAAAAAAAAAAAAAAAAAAAAAAAAAAAAAAAAAAAAAAAAAAAAAAAAAAAAAAAAAAAAAAAAAAAAAAAAAAAAAAAAAAAAAAAAAAAAAAAAAAAAAAAAAAAAAAAAAAAAAAAAAAAAAAAAAAAAAAAAAAAAAAAAAAAAAAAAAAAAAAAAAAAAAAAAAAAAAAAAAAAAAAAAAAAAAAAAAAAAAAAAAAAAAAAAAAAAAAAAAAAAAAAAAAAAAAAAAAAAAAAAAAAAAAAAAAAAAAAAAAAAAAAAAAAAAAAAAAAAAAAAAAAAAAAAAAAAAAAAAAAAAAAAAAAAAAAAAAAAAAAAAAAAAAAAAAAAAAAAAAAAAAAAAAAAAAAAAAAAAAAAAAAAAAAAAAAAAAAAAAAAAAAAAAAAAAAAAAAAAAAAAAAAAAAAAAAAAAAAAAAAAAAAAAAAAAAAAAAAAAAAAAAAAAAAAAAAAAAAAAAAAAAAAAAAAAAAAAAAAAAAAAAAAAAAAAAAAAAAAAAAAAAAAAAAAAAAAAAAAAAAAAAAAAAAAAAAAAAAAAAAAAAAAAAAAAAAAAAAAAAAAAAAAAAAAAAAAAAAAAAAAAAAAAAAAAAAAAAAAAAAAAAAAAAAAAAAAAAAAAAAAAAAAAAAAAAAAAAAAAAAAAAAAAAAAAAAAAAAAAAAAAAAAAAAAAAAAAAAAAAAAAAAAAAAAAAAAAAAAAAAAAAAAAAAAAAAAAAAAAAAAAAAAAAAAAAAAAAAAAAAAAAAAAAAAAAAAAAAAAAAAAAAAAAAAAAAAAAAAAAAAAAAAAAAAAAAAAAAAAAAAAAAAAAAAAAAAAAAAAAAAAAAAAAAAAAAAAAAAAAAAAAAAAAAAAAAAAAAAAAAAAAAAAAAAAAAAAAAAAAAAAAAAAAAAAAAAAAAAAAAAAAAAAAAAAAAAAAAAAAAAAAAAAAAAAAAAAAAAAAAAAAAAAAAAAAAAAAAAAAAAAAAAAAAAAAAAAAAAAAAAAAAAAAAAAAAAAAAAAAAAAAAAAAAAAAAAAAAAAAAAAAAAAAAAAAAAAAAAAAAAAAAAAAAAAAAAAAAAAAAAAAAAAAAAAAAAAAAAAAAAAAAAAAAAAAAAAAAAAAAAAAAAAAAAAAAAAAAAAAAAAAAAAAAAAAAAAAAAAAAAAAAAAAAAAAAAAAAAAAAAAAAAAAAAAAAAAAAAAAAAAAAAAAAAAAAAAAAAAAAAAAAAAAAAAAAAAAAAAAAAAAAAAAAAAAAAAAAAAAAAAAAAAAAAAAAAAAAAAAAAAAAAAAAAAAAAAAAAAAAAAAAAAAAAAAAAAAAAAAAAAAAAAAAAAAAAAAAAAAAAAAAAAAAAAAAAAAAAAAAAAAAAAAAAAAAAAAAAAAAAAAAAAAAAAAAAAAAAAAAAAAAAAAAAAAAAAAAAAAAAAAAAAAAAAAAAAAAAAAAAAAAAAAAAAAAAAAAAAAAAAAAAAAAAAAAAAAAAAAAAAAAAAAAAAAAAAAAAAAAAAAAAAAAAAAAAAAAAAAAAAAAAAAAAAAAAAAAAAAAAAAAAAAAAAAAAAAAAAAAAAAAAAAAAAAAAAAAAAAAAAAAAAAAAAAAAAAAAAAAAAAAAAAAAAAAAAAAAAAAAAAAAAAAAAAAAAAAAAAAAAAAAAAAAAAAAAAAAAAAAAAAAAAAAAAAAAAAAAAAAAAAAAAAAAAAAAAAAAAAAAAAAAAAAAAAAAAAAAAAAAAAAAAAAAAAAAAAAAAAAAAAAAAAAAAAAAAAAAAAAAAAAAAAAAAAAAAAAAAAAAAAAAAAAAAAAAAAAAAAAAAAAAAAAAAAAAAAAAAAAAAAAAAAAAAAAAAAAAAAAAAAAAAAAAAAAAAAAAAAAAAAAAAAAAAAAAAAAAAAAAAAAAAAAAAAAAAAAAAAAAAAAAAAAAAAAAAAAAAAAAAAAAAAAAAAAAAAAAAAAAAAAAAAAAAAAAAAAAAAAAAAAAAAAAAAAAAAAAAAAAAAAAAAAAAAAAAAAAAAAAAAAAAAAAAAAAAAAAAAAAAAAAAAAAAAAAAAAAAAAAAAAAAAAAAAAAAAAAAAAAAAAAAAAAAAAAAAAAAAAAAAAAAAAAAAAAAAAAAAAAAAAAAAAAAAAAAAAAAAAAAAAAAAAAAAAAAAAAAAAAAAAAAAAAAAAAAAAAAAAAAAAAAAAAAAAAAAAAAAAAAAAAAAAAAAAAAAAAAAAAAAAAAAAAAAAAAAAAAAAAAAAAAAAAAAAAAAAAAAAAAAAAAAAAAAAAAAAAAAAAAAAAAAAAAAAAAAAAAAAAAAAAAAAAAAAAAAAAAAAAAAAAAAAAAAAAAAAAAAAAAAAAAAAAAAAAAAAAAAAAAAAAAAAAAAAAAAAAAAAAAAAAAAAAAAAAAAAAAAAAAAAAAAAAAAAAAAAAAAAAAAAAAAAAAAAAAAAAAAAAAAAAAAAAAAAAAAAAAAAAAAAAAAAAAAAAAAAAAAAAAAAAAAAAAAAAAAAAAAAAAAAAAAAAAAAAAAAAAAAAAAAAAAAAAAAAAAAAAAAAAAAAAAAAAAAAAAAAAAAPZYQFYT5tz0lPNStN4Tqtlb7J8qIU4awvyueMllk3zweP0/oNA+aw5C4K298H8FcHcNWw6zis1rGSe5o1xUCP8376s=</c2pa:manifest></metadata>
<path transform="translate(0,0)" fill="rgb(255,255,255)" d="M 0 0 L 2048 0 L 2048 2048 L 0 2048 L 0 0 z"/>
<path transform="translate(0,0)" fill="rgb(173,41,39)" d="M 886.835 803.819 C 888.767 790.079 897.696 774.569 908.139 765.286 C 944.419 733.035 985.625 739.495 1030.37 739.308 C 1049.42 739.229 1075.12 738.471 1093.32 739.448 C 1123.19 740.928 1150.09 757.998 1164.14 784.398 C 1166.22 788.274 1170.5 800.852 1172.75 802.437 C 1171 805 1171.92 816.124 1171.99 820.204 C 1179.09 820.097 1188.32 819.672 1195.16 820.62 C 1187.48 820.511 1179.8 820.582 1172.12 820.834 C 1158.48 877.203 1104.94 878.761 1057.07 877.568 C 1021.34 876.677 983.388 881.202 947.76 878.533 C 912.489 875.892 890.615 852.079 886.219 818.056 L 886.835 803.819 z"/>
<path transform="translate(0,0)" fill="rgb(255,255,255)" d="M 964.632 755.852 C 973.029 754.634 978.782 755.067 987.119 755.756 C 983.771 757.338 978.441 757.412 974.692 757.676 C 955.701 760.341 936.083 767.863 924.219 783.67 C 915.619 795.002 912.155 809.417 914.668 823.419 C 916.959 837.007 924.809 849.026 936.331 856.585 C 939.242 858.534 943.687 860.93 946.913 862.168 L 946.125 864.239 C 935.79 860.971 928.772 858.642 920.278 851.157 C 909.869 842.006 903.553 829.071 902.738 815.235 C 900.943 780.534 932.562 757.806 964.632 755.852 z"/>
<path transform="translate(0,0)" fill="rgb(205,111,108)" d="M 964.632 755.852 C 973.029 754.634 978.782 755.067 987.119 755.756 C 983.771 757.338 978.441 757.412 974.692 757.676 C 974.313 755.028 967.084 755.981 964.632 755.852 z"/>
<path transform="translate(0,0)" fill="rgb(229,176,178)" d="M 946.913 862.168 C 948.428 862.613 956.802 865.047 957.293 866.393 C 956.618 867.763 947.494 864.619 946.125 864.239 L 946.913 862.168 z"/>
<path transform="translate(0,0)" fill="rgb(173,41,39)" d="M 400.029 1064.42 C 503.781 1063.13 527.707 1221.8 431.016 1253.88 C 424.236 1256.13 418.189 1256.85 411.105 1257.28 C 292.753 1259.1 284.99 1072.86 400.029 1064.42 z"/>
<path transform="translate(0,0)" fill="rgb(255,255,255)" d="M 374.288 1075.88 C 417.248 1071.73 479.509 1226.42 437.034 1245.07 L 424.468 1244.91 C 385.931 1223.87 332.181 1103.53 374.288 1075.88 z"/>
<path transform="translate(0,0)" fill="rgb(173,41,39)" d="M 888.002 1117.91 C 888.747 1123.1 887.128 1138.4 886.645 1144.31 C 900.865 1121.95 928.653 1110.75 952.704 1126.9 C 960.914 1132.42 963.879 1140.45 966.85 1149.38 C 971.001 1141.76 975.896 1134.98 982.794 1129.56 C 992.761 1121.78 1005.47 1118.4 1017.98 1120.18 C 1029.87 1121.94 1038.68 1129.78 1042.09 1140.98 C 1053.9 1179.76 1040.88 1221.62 1066.42 1255.49 C 1042.27 1256.47 1009.92 1255.35 985.299 1255.25 C 993.946 1245.81 996.621 1239.46 997.419 1226.83 C 998.117 1215.78 1000.34 1157.54 994.142 1151.28 C 992.682 1149.8 990.734 1149.04 988.626 1149.09 C 984.039 1149.2 979.465 1151.76 976.342 1155 C 965.076 1166.67 966.905 1185.56 967.032 1200.5 C 966.807 1226.23 963.485 1235.3 980.375 1255.23 L 902.844 1254.97 C 921.001 1236.1 915.678 1221.21 915.777 1196.68 C 915.824 1185.05 919.379 1154.75 907.975 1149.37 C 897.507 1149.07 885.324 1165.18 885.583 1175.47 C 886.117 1196.76 883.331 1221.88 889.318 1242.52 C 890.154 1245.4 896.428 1252.52 898.578 1255.06 L 819.084 1254.93 C 837.091 1235.58 832.916 1222.51 833.232 1197.99 C 833.405 1184.52 833.133 1170.91 833.074 1157.44 L 824.318 1148.59 C 846.278 1136.93 866.997 1128.7 888.002 1117.91 z"/>
<path transform="translate(0,0)" fill="rgb(173,41,39)" d="M 1102.21 1065.95 C 1130.07 1065.85 1157.93 1065.95 1185.78 1066.25 C 1182.75 1072.25 1177.57 1079.85 1175.56 1086.17 C 1168.1 1109.6 1170.87 1147.8 1170.98 1173.04 C 1192.35 1142.44 1223.11 1105.17 1213.89 1065.99 L 1267.91 1066.63 C 1238 1099.28 1215.24 1124.98 1187 1158.77 L 1189.22 1160.13 C 1196.3 1153.14 1205.1 1145.69 1212.62 1139.02 C 1229.9 1174.45 1256.26 1223.12 1278.37 1255.48 L 1207.49 1255.4 C 1209.29 1220.01 1192.19 1204.91 1176.65 1174.43 C 1174.56 1177.19 1172.59 1180.31 1170.67 1183.22 C 1169.82 1201.47 1168.97 1225.79 1177.5 1241.83 C 1179.25 1245.1 1183.57 1251.56 1185.86 1255.37 C 1158.44 1255.68 1130.27 1255.29 1102.81 1255.18 C 1122.1 1227.69 1117.43 1202.87 1118.01 1170.64 C 1118.48 1144.72 1118.6 1117.47 1115 1091.88 C 1113.92 1084.18 1106.43 1072.83 1102.21 1065.95 z"/>
<path transform="translate(0,0)" fill="rgb(229,176,178)" d="M 1187 1158.77 L 1189.22 1160.13 C 1186.61 1162.7 1181.16 1166.45 1185.88 1160.3 L 1187 1158.77 z"/>
<path transform="translate(0,0)" fill="rgb(173,41,39)" d="M 1427.96 1121.52 C 1426.77 1109.22 1426.93 1085.59 1434.21 1075.19 C 1449.68 1053.08 1494.88 1049.97 1516.5 1064.2 C 1518.56 1067.08 1519 1070.08 1518.99 1073.56 C 1518.99 1081.68 1514.87 1102.44 1508.14 1107.47 C 1495.55 1116.88 1455.47 1073.84 1441.79 1073.62 C 1430.87 1082.56 1444.81 1106.39 1454.57 1113.14 C 1459.63 1116.61 1465.35 1118.99 1471.38 1120.1 C 1479.83 1121.72 1519.12 1121.37 1528.61 1119.83 C 1547.12 1116.82 1558.82 1102.69 1568.63 1088.02 C 1573.79 1072.99 1571.17 1104.16 1571.15 1104.4 C 1571.27 1108.59 1570.85 1118.55 1572.56 1121.4 C 1574.11 1121.28 1602.12 1118.63 1596.12 1124.24 C 1587.99 1124.52 1579.86 1124.68 1571.73 1124.72 C 1571.83 1145.36 1571.83 1166 1571.72 1186.64 C 1571.66 1198.98 1565.69 1253.91 1591.84 1230.95 L 1595.11 1232.27 C 1593.08 1235.15 1590.87 1237.9 1588.5 1240.5 C 1571.9 1258.95 1535.95 1267.94 1522.64 1238.54 C 1519.14 1230.83 1520.64 1201.2 1520.7 1191.12 L 1520.77 1124.07 L 1478.94 1124.03 L 1478.67 1189.71 C 1478.59 1216.15 1474.46 1233.65 1491.72 1255.5 C 1466.04 1255.19 1440.36 1255.15 1414.68 1255.38 C 1415.97 1253.81 1417.23 1252.22 1418.47 1250.6 C 1433.79 1230.55 1426.12 1184.97 1427.84 1160.1 C 1428.3 1153.38 1428.3 1131.9 1427.42 1125.51 L 1425.32 1124.4 C 1427.17 1123.41 1427.45 1123.51 1427.96 1121.52 z"/>
<path transform="translate(0,0)" fill="rgb(182,29,27)" d="M 1572.56 1121.4 C 1574.11 1121.28 1602.12 1118.63 1596.12 1124.24 C 1590.14 1123.21 1574.77 1123.96 1572.75 1123.39 C 1572.38 1122.87 1572.55 1122.02 1572.56 1121.4 z"/>
<path transform="translate(0,0)" fill="rgb(182,29,27)" d="M 1568.63 1088.02 C 1573.79 1072.99 1571.17 1104.16 1571.15 1104.4 C 1570.5 1099.44 1571.84 1090.52 1568.63 1088.02 z"/>
<path transform="translate(0,0)" fill="rgb(173,41,39)" d="M 1326.78 1116.51 C 1365.79 1110.74 1402.1 1137.67 1407.89 1176.68 C 1413.68 1215.69 1386.77 1252.01 1347.77 1257.83 C 1308.73 1263.66 1272.37 1236.72 1266.57 1197.67 C 1260.77 1158.63 1287.73 1122.28 1326.78 1116.51 z"/>
<path transform="translate(0,0)" fill="rgb(255,255,255)" d="M 1319.88 1124.86 C 1351.21 1128.1 1372.77 1210.74 1363.66 1237.41 C 1361.69 1243.17 1360.2 1244.97 1355.62 1248.73 C 1345.92 1247.11 1341.35 1242.39 1335.08 1235.03 C 1318.98 1216.15 1292.95 1141.06 1319.88 1124.86 z"/>
<path transform="translate(0,0)" fill="rgb(173,41,39)" d="M 755.601 1121.3 C 767.822 1120.08 780.144 1122.17 791.283 1127.35 C 808.35 1135.34 835.733 1168.1 812.48 1176.61 C 794.584 1183.17 763.742 1187.56 743.622 1194.31 C 745.637 1196.94 747.835 1199.42 750.199 1201.75 C 762.798 1214.27 780.225 1222.2 798.238 1220.32 C 810.832 1219 817.121 1213.72 825.159 1204.91 C 823.02 1212.86 822.016 1216.29 818.676 1223.73 C 799.297 1260.32 751.137 1267.41 719.289 1244.27 C 705.117 1234.01 695.601 1218.54 692.833 1201.27 C 689.898 1183.24 694.482 1164.79 705.517 1150.23 C 718.677 1132.52 734.187 1124.57 755.601 1121.3 z"/>
<path transform="translate(0,0)" fill="rgb(255,255,255)" d="M 753.154 1125.98 C 768.193 1125.89 779.625 1134.91 783.386 1149.83 C 788.39 1169.69 781.385 1179.26 763.094 1185.28 L 741.472 1190.5 C 733.115 1170.29 728.59 1136.61 753.154 1125.98 z"/>
<path transform="translate(0,0)" fill="rgb(173,41,39)" d="M 1659.09 1122.29 C 1671.73 1120.34 1684.67 1122.04 1696.37 1127.19 C 1709.53 1133.08 1731.12 1151.89 1724.77 1169.63 C 1723.72 1171.92 1720.14 1175.42 1717.79 1176.11 C 1696.25 1182.42 1672.69 1187.98 1651.07 1193.98 C 1653.23 1197.33 1655.05 1199.68 1657.74 1202.61 C 1667.91 1213.58 1682.06 1220 1697.02 1220.41 C 1711.85 1220.79 1721.14 1215.44 1731.25 1205.63 C 1729.19 1213.51 1728.29 1216.73 1724.97 1224.08 C 1705.95 1258.66 1659.86 1267.64 1628.03 1246.07 C 1613.34 1236.09 1603.24 1220.66 1599.98 1203.2 C 1591.98 1161.44 1618.56 1129.5 1659.09 1122.29 z"/>
<path transform="translate(0,0)" fill="rgb(255,255,255)" d="M 1657.99 1127.26 C 1673.13 1125.6 1680.85 1130.08 1686.44 1144.62 C 1693.75 1163.62 1690.14 1178.29 1670.67 1185.31 C 1663.38 1187.13 1656.24 1189.17 1648.86 1190.8 C 1646.71 1186.08 1644.55 1181.18 1643.84 1176.01 C 1641.01 1155.44 1638.63 1138.96 1657.99 1127.26 z"/>
<path transform="translate(0,0)" fill="rgb(173,41,39)" d="M 509.399 1123.02 C 547.824 1122.76 586.25 1122.78 624.675 1123.07 C 599.107 1155.37 580.621 1202.39 554.905 1235.56 C 551.901 1239.43 547.382 1246.03 549.664 1250.78 C 563.82 1254.38 606.52 1210.25 619.921 1200.51 L 621.102 1199.66 L 607.146 1246.77 L 604.458 1255.21 L 487.023 1255.14 C 498.219 1234.42 513.101 1213 524.362 1192.45 C 528.761 1184.42 564.001 1130.12 563.549 1127.46 C 552.246 1124.34 511.529 1161.24 500.043 1168.92 L 498.945 1169.64 C 501.418 1154.51 506.718 1138.86 509.399 1123.02 z"/>
<path transform="translate(0,0)" fill="rgb(173,41,39)" d="M 683.306 1057.88 C 686.255 1059.35 684.823 1064.25 684.725 1067.54 C 683.079 1123.24 677.801 1181.19 683.961 1236.56 C 684.635 1242.62 691.13 1250.72 694.657 1255.61 C 672.003 1254.91 648.473 1255.16 625.75 1255.11 C 623.143 1255.23 621.573 1255.56 619.206 1254.47 C 619.18 1250.13 625.596 1246.52 626.89 1241.45 C 631.612 1222.96 630.011 1200.75 629.969 1181.76 L 629.511 1098.11 L 621.843 1086.51 L 683.306 1057.88 z"/>
<path transform="translate(0,0)" fill="rgb(37,36,39)" d="M 1014.16 889.731 C 1026.95 896.471 1044.9 912.627 1049.17 926.77 C 1059.27 960.325 1026.3 985.536 1013.09 1012.27 C 1005.94 1026.73 1009.42 1038.28 1014.64 1052.19 C 1000.84 1043.02 994.759 1037.83 985.118 1024.41 C 984.638 1023.66 984.163 1022.9 983.692 1022.15 C 965.677 993.188 963.367 956.87 996.66 937.266 C 992.404 945.458 982.802 972.901 994.516 977.379 C 1000.33 974.552 1014.42 953.441 1017.34 946.164 C 1024.78 927.621 1021.51 907.654 1014.16 889.731 z"/>
<path transform="translate(0,0)" fill="rgb(37,36,39)" d="M 1054.39 931.542 C 1055.66 932.245 1057.4 933.702 1058.2 934.849 C 1078.79 964.412 1094.74 1019.12 1059.91 1044.89 C 1057.03 1047.02 1053.84 1050.24 1050.13 1049.88 L 1049.72 1048.42 L 1052.09 1044.34 C 1061.8 1027.52 1058.94 1011.98 1050.32 995.808 C 1042.69 1002.54 1040.86 1002.91 1031.31 1005.32 C 1042.21 985.051 1056.97 955.464 1054.39 931.542 z"/>
<path transform="translate(0,0)" fill="rgb(37,36,39)" d="M 1172.75 802.437 C 1197.2 801.92 1221.65 801.647 1246.1 801.616 C 1257.77 801.565 1270.99 800.342 1282.42 802.156 C 1285.08 802.579 1286.95 803.427 1288.81 805.491 C 1290.92 807.843 1291.32 810.308 1290.86 813.326 C 1290.52 815.57 1289.43 817.814 1287.56 819.178 C 1280.71 824.175 1209.1 820.779 1195.16 820.62 C 1188.32 819.672 1179.09 820.097 1171.99 820.204 C 1171.92 816.124 1171 805 1172.75 802.437 z"/>
<path transform="translate(0,0)" fill="rgb(173,41,39)" d="M 1365.75 1053.34 C 1373.51 1051.03 1381.91 1053.1 1387.7 1058.76 C 1393.5 1064.41 1395.77 1072.76 1393.65 1080.57 C 1391.53 1088.39 1385.34 1094.44 1377.49 1096.38 C 1365.72 1099.3 1353.78 1092.29 1350.59 1080.6 C 1347.4 1068.9 1354.13 1056.8 1365.75 1053.34 z"/>
<path transform="translate(0,0)" fill="rgb(173,41,39)" d="M 1305.23 1053.47 C 1317.01 1049.68 1329.62 1056.23 1333.29 1068.04 C 1336.97 1079.86 1330.29 1092.41 1318.44 1095.96 C 1306.75 1099.47 1294.42 1092.91 1290.79 1081.26 C 1287.17 1069.61 1293.61 1057.21 1305.23 1053.47 z"/>
<path transform="translate(0,0)" fill="rgb(173,41,39)" d="M 373.208 1011.31 C 384.796 1008.54 396.442 1015.65 399.283 1027.22 C 402.125 1038.79 395.096 1050.49 383.547 1053.41 C 371.885 1056.35 360.052 1049.24 357.184 1037.56 C 354.315 1025.88 361.507 1014.1 373.208 1011.31 z"/>
<path transform="translate(0,0)" fill="rgb(173,41,39)" d="M 427.712 1011.3 C 439.32 1008.5 450.987 1015.68 453.712 1027.31 C 456.437 1038.93 449.179 1050.55 437.537 1053.2 C 425.999 1055.83 414.503 1048.65 411.802 1037.13 C 409.102 1025.61 416.208 1014.07 427.712 1011.3 z"/>
<path transform="translate(0,0)" fill="rgb(37,36,39)" d="M 763.622 808.67 C 770.022 809.371 797.506 807.348 806.415 806.913 C 833.21 805.599 860.018 804.567 886.835 803.819 L 886.219 818.056 C 879.176 817.268 871.101 816.803 864.035 816.639 C 831.756 815.889 798.669 811.783 766.546 811.076 L 763.622 808.67 z"/>
<path transform="translate(0,0)" fill="rgb(182,29,27)" d="M 1425.32 1124.4 C 1400.54 1123.69 1413.32 1119.08 1427.96 1121.52 C 1427.45 1123.51 1427.17 1123.41 1425.32 1124.4 z"/>
<path transform="translate(0,0)" fill="rgb(205,111,108)" d="M 1591.84 1230.95 C 1595.65 1226.77 1598.22 1225.02 1595.11 1232.27 L 1591.84 1230.95 z"/>
<path transform="translate(0,0)" fill="rgb(141,135,131)" d="M 766.546 811.076 C 765.95 811.059 758.193 811.355 758.608 809.691 C 759.572 808.718 762.395 808.788 763.622 808.67 L 766.546 811.076 z"/>
</svg>