<svg version="1.1" xmlns="http://www.w3.org/2000/svg" style="display: block;" viewBox="0 0 2048 2048" width="1024" height="1024" preserveAspectRatio="none" xmlns:c2pa="http://c2pa.org/manifest"><metadata><c2pa:manifest>AAAzs2p1bWIAAAAeanVtZGMycGEAEQAQgAAAqgA4m3EDYzJwYQAAADONanVtYgAAAEdqdW1kYzJtYQARABCAAACqADibcQN1cm46YzJwYTpkMjQ3ZDIzNy0wYThhLTQ0YzAtYmJjNi1hMzhmOWZmYjQxOGMAAAAB4mp1bWIAAAApanVtZGMyYXMAEQAQgAAAqgA4m3EDYzJwYS5hc3NlcnRpb25zAAAAAO1qdW1iAAAAQWp1bWRjYm9yABEAEIAAAKoAOJtxE2MycGEuYWN0aW9ucy52MgAAAAAYYzJzaJoheIrT/4KByU8SQBjJ4noAAACkY2JvcqFnYWN0aW9uc4GjZmFjdGlvbmxjMnBhLmNyZWF0ZWRxZGlnaXRhbFNvdXJjZVR5cGV4Rmh0dHA6Ly9jdi5pcHRjLm9yZy9uZXdzY29kZXMvZGlnaXRhbHNvdXJjZXR5cGUvdHJhaW5lZEFsZ29yaXRobWljTWVkaWFrZGVzY3JpcHRpb252Q3JlYXRlZCBieSBSZWNyYWZ0IEFJLgAAAMRqdW1iAAAAQGp1bWRjYm9yABEAEIAAAKoAOJtxE2MycGEuaGFzaC5kYXRhAAAAABhjMnNouxaqG7qkBm6FMUAZ0+DB7wAAAHxjYm9ypWpleGNsdXNpb25zgaJlc3RhcnQY22ZsZW5ndGgZRPBkbmFtZW5qdW1iZiBtYW5pZmVzdGNhbGdmc2hhMjU2ZGhhc2hYIAy/EOf8ccYzecXGUCzjcLwXE3lZqmUa2HOpGNvi9hMuY3BhZEkAAAAAAAAAAAAAAAI0anVtYgAAACdqdW1kYzJjbAARABCAAACqADibcQNjMnBhLmNsYWltLnYyAAAAAgVjYm9ypmppbnN0YW5jZUlEeCx4bXA6aWlkOjRmNGRhZWM2LWRiYWYtNDZhYS1iNzk4LWRiZjAwMTBkOTQ5Y3RjbGFpbV9nZW5lcmF0b3JfaW5mb6NkbmFtZWpyZWNyYWZ0LmFpZ3ZlcnNpb254KDgxY2U4MmUyYzVjM2NiZmJlOGM2ZmJlMTc5ZDVmOGQ5MWM0MDljZTF3b3JnLmNvbnRlbnRhdXRoLmMycGFfcnNmMC45MC43aXNpZ25hdHVyZXhNc2VsZiNqdW1iZj0vYzJwYS91cm46YzJwYTpkMjQ3ZDIzNy0wYThhLTQ0YzAtYmJjNi1hMzhmOWZmYjQxOGMvYzJwYS5zaWduYXR1cmVyY3JlYXRlZF9hc3NlcnRpb25zgqJjdXJseCpzZWxmI2p1bWJmPWMycGEuYXNzZXJ0aW9ucy9jMnBhLmFjdGlvbnMudjJkaGFzaFggK/j7Jy24HDa9IRec6TTxpTcIpFxWI5WUoa1tWfQ6Jr6iY3VybHgpc2VsZiNqdW1iZj1jMnBhLmFzc2VydGlvbnMvYzJwYS5oYXNoLmRhdGFkaGFzaFggkkR/J8yMfqoM6mFxC8/sq5cNtr38R+OxPaBr/Q5B3TxoZGM6dGl0bGV4GlJlY3JhZnQgQUkgR2VuZXJhdGVkIEltYWdlY2FsZ2ZzaGEyNTYAAC8oanVtYgAAAChqdW1kYzJjcwARABCAAACqADibcQNjMnBhLnNpZ25hdHVyZQAAAC74Y2JvctKEWQPsogEmGCGCWQH0MIIB8DCCAZWgAwIBAgIUJcFH1Va4pZJDhzepwEtzPPNj2YMwCgYIKoZIzj0EAwIwQTELMAkGA1UEBhMCVVMxEzARBgNVBAoMClJlY3JhZnQgQUkxHTAbBgNVBAMMFFJlY3JhZnQgQzJQQSBSb290IENBMB4XDTI2MDkxMDE2NTIzNFoXDTI3MDkxMDE2NTIzNFowNzELMAkGA1UEBhMCVVMxEzARBgNVBAoMClJlY3JhZnQgQUkxEzARBgNVBAMMCnJlY3JhZnQuYWkwWTATBgcqhkjOPQIBBggqhkjOPQMBBwNCAASoOPdqG3YmNRdGd+dltfh1ikcE/nkLm8YK10H29taFa8iegusHYB1678yl5Bs18hLaV/Fhd+Ni32xAlnHdbimFo3UwczAMBgNVHRMBAf8EAjAAMA4GA1UdDwEB/wQEAwIGwDATBgNVHSUEDDAKBggrBgEFBQcDBDAdBgNVHQ4EFgQUgVwhvbEXPSSgCubOfUHxCtuoVAQwHwYDVR0jBBgwFoAUc9yF+sfWlRHeWv2Iucaec5jwdAgwCgYIKoZIzj0EAwIDSQAwRgIhAJltDpQN+vbXITLxb+8BNwSL6/5WktO4Sevkb0VXjtfWAiEAqhoz7z/sN32NxdnnZsQVTeu3P7CgGtJdXFx283fp08RZAewwggHoMIIBjaADAgECAhQAydo/NKOQWWu/4V5FktVQHX7jTDAKBggqhkjOPQQDAjBBMQswCQYDVQQGEwJVUzETMBEGA1UECgwKUmVjcmFmdCBBSTEdMBsGA1UEAwwUUmVjcmFmdCBDMlBBIFJvb3QgQ0EwHhcNMjYwOTEwMTY1MjM0WhcNMzYwOTA3MTY1MjM0WjBBMQswCQYDVQQGEwJVUzETMBEGA1UECgwKUmVjcmFmdCBBSTEdMBsGA1UEAwwUUmVjcmFmdCBDMlBBIFJvb3QgQ0EwWTATBgcqhkjOPQIBBggqhkjOPQMBBwNCAAQbQ+eF6fkpnHhTwrMxSBLh/JhROWkzsC8L8jN1r1Rlf8oECvzEFk3WujloPtNs3PLADriqR5rGtd+8giFuiTLno2MwYTAfBgNVHSMEGDAWgBRz3IX6x9aVEd5a/Yi5xp5zmPB0CDAPBgNVHRMBAf8EBTADAQH/MA4GA1UdDwEB/wQEAwIBhjAdBgNVHQ4EFgQUc9yF+sfWlRHeWv2Iucaec5jwdAgwCgYIKoZIzj0EAwIDSQAwRgIhAND2Z+xryBRnMbxk8eAzMcAq8bzl0rfA9Y2z7q5QoEUeAiEA6ZbI3e47h5clRZaARSOOotKXsK/YQMWC3vj91d3bmlOhY3BhZFkqtAAAAAAAAAAAAAAAAAAAAAAAAAAAAAAAAAAAAAAAAAAAAAAAAAAAAAAAAAAAAAAAAAAAAAAAAAAAAAAAAAAAAAAAAAAAAAAAAAAAAAAAAAAAAAAAAAAAAAAAAAAAAAAAAAAAAAAAAAAAAAAAAAAAAAAAAAAAAAAAAAAAAAAAAAAAAAAAAAAAAAAAAAAAAAAAAAAAAAAAAAAAAAAAAAAAAAAAAAAAAAAAAAAAAAAAAAAAAAAAAAAAAAAAAAAAAAAAAAAAAAAAAAAAAAAAAAAAAAAAAAAAAAAAAAAAAAAAAAAAAAAAAAAAAAAAAAAAAAAAAAAAAAAAAAAAAAAAAAAAAAAAAAAAAAAAAAAAAAAAAAAAAAAAAAAAAAAAAAAAAAAAAAAAAAAAAAAAAAAAAAAAAAAAAAAAAAAAAAAAAAAAAAAAAAAAAAAAAAAAAAAAAAAAAAAAAAAAAAAAAAAAAAAAAAAAAAAAAAAAAAAAAAAAAAAAAAAAAAAAAAAAAAAAAAAAAAAAAAAAAAAAAAAAAAAAAAAAAAAAAAAAAAAAAAAAAAAAAAAAAAAAAAAAAAAAAAAAAAAAAAAAAAAAAAAAAAAAAAAAAAAAAAAAAAAAAAAAAAAAAAAAAAAAAAAAAAAAAAAAAAAAAAAAAAAAAAAAAAAAAAAAAAAAAAAAAAAAAAAAAAAAAAAAAAAAAAAAAAAAAAAAAAAAAAAAAAAAAAAAAAAAAAAAAAAAAAAAAAAAAAAAAAAAAAAAAAAAAAAAAAAAAAAAAAAAAAAAAAAAAAAAAAAAAAAAAAAAAAAAAAAAAAAAAAAAAAAAAAAAAAAAAAAAAAAAAAAAAAAAAAAAAAAAAAAAAAAAAAAAAAAAAAAAAAAAAAAAAAAAAAAAAAAAAAAAAAAAAAAAAAAAAAAAAAAAAAAAAAAAAAAAAAAAAAAAAAAAAAAAAAAAAAAAAAAAAAAAAAAAAAAAAAAAAAAAAAAAAAAAAAAAAAAAAAAAAAAAAAAAAAAAAAAAAAAAAAAAAAAAAAAAAAAAAAAAAAAAAAAAAAAAAAAAAAAAAAAAAAAAAAAAAAAAAAAAAAAAAAAAAAAAAAAAAAAAAAAAAAAAAAAAAAAAAAAAAAAAAAAAAAAAAAAAAAAAAAAAAAAAAAAAAAAAAAAAAAAAAAAAAAAAAAAAAAAAAAAAAAAAAAAAAAAAAAAAAAAAAAAAAAAAAAAAAAAAAAAAAAAAAAAAAAAAAAAAAAAAAAAAAAAAAAAAAAAAAAAAAAAAAAAAAAAAAAAAAAAAAAAAAAAAAAAAAAAAAAAAAAAAAAAAAAAAAAAAAAAAAAAAAAAAAAAAAAAAAAAAAAAAAAAAAAAAAAAAAAAAAAAAAAAAAAAAAAAAAAAAAAAAAAAAAAAAAAAAAAAAAAAAAAAAAAAAAAAAAAAAAAAAAAAAAAAAAAAAAAAAAAAAAAAAAAAAAAAAAAAAAAAAAAAAAAAAAAAAAAAAAAAAAAAAAAAAAAAAAAAAAAAAAAAAAAAAAAAAAAAAAAAAAAAAAAAAAAAAAAAAAAAAAAAAAAAAAAAAAAAAAAAAAAAAAAAAAAAAAAAAAAAAAAAAAAAAAAAAAAAAAAAAAAAAAAAAAAAAAAAAAAAAAAAAAAAAAAAAAAAAAAAAAAAAAAAAAAAAAAAAAAAAAAAAAAAAAAAAAAAAAAAAAAAAAAAAAAAAAAAAAAAAAAAAAAAAAAAAAAAAAAAAAAAAAAAAAAAAAAAAAAAAAAAAAAAAAAAAAAAAAAAAAAAAAAAAAAAAAAAAAAAAAAAAAAAAAAAAAAAAAAAAAAAAAAAAAAAAAAAAAAAAAAAAAAAAAAAAAAAAAAAAAAAAAAAAAAAAAAAAAAAAAAAAAAAAAAAAAAAAAAAAAAAAAAAAAAAAAAAAAAAAAAAAAAAAAAAAAAAAAAAAAAAAAAAAAAAAAAAAAAAAAAAAAAAAAAAAAAAAAAAAAAAAAAAAAAAAAAAAAAAAAAAAAAAAAAAAAAAAAAAAAAAAAAAAAAAAAAAAAAAAAAAAAAAAAAAAAAAAAAAAAAAAAAAAAAAAAAAAAAAAAAAAAAAAAAAAAAAAAAAAAAAAAAAAAAAAAAAAAAAAAAAAAAAAAAAAAAAAAAAAAAAAAAAAAAAAAAAAAAAAAAAAAAAAAAAAAAAAAAAAAAAAAAAAAAAAAAAAAAAAAAAAAAAAAAAAAAAAAAAAAAAAAAAAAAAAAAAAAAAAAAAAAAAAAAAAAAAAAAAAAAAAAAAAAAAAAAAAAAAAAAAAAAAAAAAAAAAAAAAAAAAAAAAAAAAAAAAAAAAAAAAAAAAAAAAAAAAAAAAAAAAAAAAAAAAAAAAAAAAAAAAAAAAAAAAAAAAAAAAAAAAAAAAAAAAAAAAAAAAAAAAAAAAAAAAAAAAAAAAAAAAAAAAAAAAAAAAAAAAAAAAAAAAAAAAAAAAAAAAAAAAAAAAAAAAAAAAAAAAAAAAAAAAAAAAAAAAAAAAAAAAAAAAAAAAAAAAAAAAAAAAAAAAAAAAAAAAAAAAAAAAAAAAAAAAAAAAAAAAAAAAAAAAAAAAAAAAAAAAAAAAAAAAAAAAAAAAAAAAAAAAAAAAAAAAAAAAAAAAAAAAAAAAAAAAAAAAAAAAAAAAAAAAAAAAAAAAAAAAAAAAAAAAAAAAAAAAAAAAAAAAAAAAAAAAAAAAAAAAAAAAAAAAAAAAAAAAAAAAAAAAAAAAAAAAAAAAAAAAAAAAAAAAAAAAAAAAAAAAAAAAAAAAAAAAAAAAAAAAAAAAAAAAAAAAAAAAAAAAAAAAAAAAAAAAAAAAAAAAAAAAAAAAAAAAAAAAAAAAAAAAAAAAAAAAAAAAAAAAAAAAAAAAAAAAAAAAAAAAAAAAAAAAAAAAAAAAAAAAAAAAAAAAAAAAAAAAAAAAAAAAAAAAAAAAAAAAAAAAAAAAAAAAAAAAAAAAAAAAAAAAAAAAAAAAAAAAAAAAAAAAAAAAAAAAAAAAAAAAAAAAAAAAAAAAAAAAAAAAAAAAAAAAAAAAAAAAAAAAAAAAAAAAAAAAAAAAAAAAAAAAAAAAAAAAAAAAAAAAAAAAAAAAAAAAAAAAAAAAAAAAAAAAAAAAAAAAAAAAAAAAAAAAAAAAAAAAAAAAAAAAAAAAAAAAAAAAAAAAAAAAAAAAAAAAAAAAAAAAAAAAAAAAAAAAAAAAAAAAAAAAAAAAAAAAAAAAAAAAAAAAAAAAAAAAAAAAAAAAAAAAAAAAAAAAAAAAAAAAAAAAAAAAAAAAAAAAAAAAAAAAAAAAAAAAAAAAAAAAAAAAAAAAAAAAAAAAAAAAAAAAAAAAAAAAAAAAAAAAAAAAAAAAAAAAAAAAAAAAAAAAAAAAAAAAAAAAAAAAAAAAAAAAAAAAAAAAAAAAAAAAAAAAAAAAAAAAAAAAAAAAAAAAAAAAAAAAAAAAAAAAAAAAAAAAAAAAAAAAAAAAAAAAAAAAAAAAAAAAAAAAAAAAAAAAAAAAAAAAAAAAAAAAAAAAAAAAAAAAAAAAAAAAAAAAAAAAAAAAAAAAAAAAAAAAAAAAAAAAAAAAAAAAAAAAAAAAAAAAAAAAAAAAAAAAAAAAAAAAAAAAAAAAAAAAAAAAAAAAAAAAAAAAAAAAAAAAAAAAAAAAAAAAAAAAAAAAAAAAAAAAAAAAAAAAAAAAAAAAAAAAAAAAAAAAAAAAAAAAAAAAAAAAAAAAAAAAAAAAAAAAAAAAAAAAAAAAAAAAAAAAAAAAAAAAAAAAAAAAAAAAAAAAAAAAAAAAAAAAAAAAAAAAAAAAAAAAAAAAAAAAAAAAAAAAAAAAAAAAAAAAAAAAAAAAAAAAAAAAAAAAAAAAAAAAAAAAAAAAAAAAAAAAAAAAAAAAAAAAAAAAAAAAAAAAAAAAAAAAAAAAAAAAAAAAAAAAAAAAAAAAAAAAAAAAAAAAAAAAAAAAAAAAAAAAAAAAAAAAAAAAAAAAAAAAAAAAAAAAAAAAAAAAAAAAAAAAAAAAAAAAAAAAAAAAAAAAAAAAAAAAAAAAAAAAAAAAAAAAAAAAAAAAAAAAAAAAAAAAAAAAAAAAAAAAAAAAAAAAAAAAAAAAAAAAAAAAAAAAAAAAAAAAAAAAAAAAAAAAAAAAAAAAAAAAAAAAAAAAAAAAAAAAAAAAAAAAAAAAAAAAAAAAAAAAAAAAAAAAAAAAAAAAAAAAAAAAAAAAAAAAAAAAAAAAAAAAAAAAAAAAAAAAAAAAAAAAAAAAAAAAAAAAAAAAAAAAAAAAAAAAAAAAAAAAAAAAAAAAAAAAAAAAAAAAAAAAAAAAAAAAAAAAAAAAAAAAAAAAAAAAAAAAAAAAAAAAAAAAAAAAAAAAAAAAAAAAAAAAAAAAAAAAAAAAAAAAAAAAAAAAAAAAAAAAAAAAAAAAAAAAAAAAAAAAAAAAAAAAAAAAAAAAAAAAAAAAAAAAAAAAAAAAAAAAAAAAAAAAAAAAAAAAAAAAAAAAAAAAAAAAAAAAAAAAAAAAAAAAAAAAAAAAAAAAAAAAAAAAAAAAAAAAAAAAAAAAAAAAAAAAAAAAAAAAAAAAAAAAAAAAAAAAAAAAAAAAAAAAAAAAAAAAAAAAAAAAAAAAAAAAAAAAAAAAAAAAAAAAAAAAAAAAAAAAAAAAAAAAAAAAAAAAAAAAAAAAAAAAAAAAAAAAAAAAAAAAAAAAAAAAAAAAAAAAAAAAAAAAAAAAAAAAAAAAAAAAAAAAAAAAAAAAAAAAAAAAAAAAAAAAAAAAAAAAAAAAAAAAAAAAAAAAAAAAAAAAAAAAAAAAAAAAAAAAAAAAAAAAAAAAAAAAAAAAAAAAAAAAAAAAAAAAAAAAAAAAAAAAAAAAAAAAAAAAAAAAAAAAAAAAAAAAAAAAAAAAAAAAAAAAAAAAAAAAAAAAAAAAAAAAAAAAAAAAAAAAAAAAAAAAAAAAAAAAAAAAAAAAAAAAAAAAAAAAAAAAAAAAAAAAAAAAAAAAAAAAAAAAAAAAAAAAAAAAAAAAAAAAAAAAAAAAAAAAAAAAAAAAAAAAAAAAAAAAAAAAAAAAAAAAAAAAAAAAAAAAAAAAAAAAAAAAAAAAAAAAAAAAAAAAAAAAAAAAAAAAAAAAAAAAAAAAAAAAAAAAAAAAAAAAAAAAAAAAAAAAAAAAAAAAAAAAAAAAAAAAAAAAAAAAAAAAAAAAAAAAAAAAAAAAAAAAAAAAAAAAAAAAAAAAAAAAAAAAAAAAAAAAAAAAAAAAAAAAAAAAAAAAAAAAAAAAAAAAAAAAAAAAAAAAAAAAAAAAAAAAAAAAAAAAAAAAAAAAAAAAAAAAAAAAAAAAAAAAAAAAAAAAAAAAAAAAAAAAAAAAAAAAAAAAAAAAAAAAAAAAAAAAAAAAAAAAAAAAAAAAAAAAAAAAAAAAAAAAAAAAAAAAAAAAAAAAAAAAAAAAAAAAAAAAAAAAAAAAAAAAAAAAAAAAAAAAAAAAAAAAAAAAAAAAAAAAAAAAAAAAAAAAAAAAAAAAAAAAAAAAAAAAAAAAAAAAAAAAAAAAAAAAAAAAAAAAAAAAAAAAAAAAAAAAAAAAAAAAAAAAAAAAAAAAAAAAAAAAAAAAAAAAAAAAAAAAAAAAAAAAAAAAAAAAAAAAAAAAAAAAAAAAAAAAAAAAAAAAAAAAAAAAAAAAAAAAAAAAAAAAAAAAAAAAAAAAAAAAAAAAAAAAAAAAAAAAAAAAAAAAAAAAAAAAAAAAAAAAAAAAAAAAAAAAAAAAAAAAAAAAAAAAAAAAAAAAAAAAAAAAAAAAAAAAAAAAAAAAAAAAAAAAAAAAAAAAAAAAAAAAAAAAAAAAAAAAAAAAAAAAAAAAAAAAAAAAAAAAAAAAAAAAAAAAAAAAAAAAAAAAAAAAAAAAAAAAAAAAAAAAAAAAAAAAAAAAAAAAAAAAAAAAAAAAAAAAAAAAAAAAAAAAAAAAAAAAAAAAAAAAAAAAAAAAAAAAAAAAAAAAAAAAAAAAAAAAAAAAAAAAAAAAAAAAAAAAAAAAAAAAAAAAAAAAAAAAAAAAAAAAAAAAAAAAAAAAAAAAAAAAAAAAAAAAAAAAAAAAAAAAAAAAAAAAAAAAAAAAAAAAAAAAAAAAAAAAAAAAAAAAAAAAAAAAAAAAAAAAAAAAAAAAAAAAAAAAAAAAAAAAAAAAAAAAAAAAAAAAAAAAAAAAAAAAAAAAAAAAAAAAAAAAAAAAAAAAAAAAAAAAAAAAAAAAAAAAAAAAAAAAAAAAAAAAAAAAAAAAAAAAAAAAAAAAAAAAAAAAAAAAAAAAAAAAAAAAAAAAAAAAAAAAAAAAAAAAAAAAAAAAAAAAAAAAAAAAAAAAAAAAAAAAAAAAAAAAAAAAAAAAAAAAAAAAAAAAAAAAAAAAAAAAAAAAAAAAAAAAAAAAAAAAAAAAAAAAAAAAAAAAAAAAAAAAAAAAAAAAAAAAAAAAAAAAAAAAAAAAAAAAAAAAAAAAAAAAAAAAAAAAAAAAAAAAAAAAAAAAAAAAAAAAAAAAAAAAAAAAAAAAAAAAAAAAAAAAAAAAAAAAAAAAAAAAAAAAAAAAAAAAAAAAAAAAAAAAAAAAAAAAAAAAAAAAAAAAAAAAAAAAAAAAAAAAAAAAAAAAAAAAAAAAAAAAAAAAAAAAAAAAAAAAAAAAAAAAAAAAAAAAAAAAAAAAAAAAAAAAAAAAAAAAAAAAAAAAAAAAAAAAAAAAAAAAAAAAAAAAAAAAAAAAAAAAAAAAAAAAAAAAAAAAAAAAAAAAAAAAAAAAAAAAAAAAAAAAAAAAAAAAAAAAAAAAAAAAAAAAAAAAAAAAAAAAAAAAAAAAAAAAAAAAAAAAAAAAAAAAAAAAAAAAAAAAAAAAAAAAAAAAAAAAAAAAAAAAAAAAAAAAAAAAAAAAAAAAAAAAAAAAAAAAAAAAAAAAAAAAAAAAAAAAAAAAAAAAAAAAAAAAAAAAAAAAAAAAAAAAAAAAAAAAAAAAAAAAAAAAAAAAAAAAAAAAAAAAAAAAAAAAAAAAAAAAAAAAAAAAAAAAAAAAAAAAAAAAAAAAAAAAAAAAAAAAAAAAAAAAAAAAAAAAAAAAAAAAAAAAAAAAAAAAAAAAAAAAAAAAAAAAAAAAAAAAAAAAAAAAAAAAAAAAAAAAAAAAAAAAAAAAAAAAAAAAAAAAAAAAAAAAAAAAAAAAAAAAAAAAAAAAAAAAAAAAAAAAAAAAAAAAAAAAAAAAAAAAAAAAAAAAAAAAAAAAAAAAAAAAAAAAAAAAAAAAAAAAAAAAAAAAAAAAAAAAAAAAAAAAAAAAAAAAAAAAAAAAAAAAAAAAAAAAAAAAAAAAAAAAAAAAAAAAAAAAAAAAAAAAAAAAAAAAAAAAAAAAAAAAAAAAAAAAAAAAAAAAAAAAAAAAAAAAAAAAAAAAAAAAAAAAAAAAAAAAAAAAAAAAAAAAAAAAAAAAAAAAAAAAAAAAAAAAAAAAAAAAAAAAAAAAAAAAAAAAAAAAAAAAAAAAAAAAAAAAAAAAAAAAAAAAAAAAAAAAAAAAAAAAAAAAAAAAAAAAAAAAAAAAAAAAAAAAAAAAAAAAAAAAAAAAAAAAAAAAAAAAAAAAAAAAAAAAAAAAAAAAAAAAAAAAAAAAAAAAAAAAAAAAAAAAAAAAAAAAAAAAAAAAAAAAAAAAAAAAAAAAAAAAAAAAAAAAAAAAAAAAAAAAAAAAAAAAAAAAAAAAAAAAAAAAAAAAAAAAAAAAAAAAAAAAAAAAAAAAAAAAAAAAAAAAAAAAAAAAAAAAAAAAAAAAAAAAAAAAAAAAAAAAAAAAAAAAAAAAAAAAAAAAAAAAAAAAAAAAAAAAAAAAAAAAAAAAAAAAAAAAAAAAAAAAAAAAAAAAAAAAAAAAAAAAAAAAAAAAAAAAAAAAAAAAAAAAAAAAAAAAAAAAAAAAAAAAAAAAAAAAAAAAAAAAAAAAAAAAAAAAAAAAAAAAAAAAAAAAAAAAAAAAAAAAAAAAAAAAAAAAAAAAAAAAAAAAAAAAAAAAAAAAAAAAAAAAAAAAAAAAAAAAAAAAAAAAAAAAAAAAAAAAAAAAAAAAAAAAAAAAAAAAAAAAAAAAAAAAAAAAAAAAAAAAAAAAAAAAAAAAAAAAAAAAAAAAAAAAAAAAAAAAAAAAAAAAAAAAAAAAAAAAAAAAAAAAAAAAAAAAAAAAAAAAAAAAAAAAAAAAAAAAAAAAAAAAAAAAAAAAAAAAAAAAAAAAAAAAAAAAAAAAAAAAAAAAAAAAAAAAAAAAAAAAAAAAAAAAAAAAAAAAAAAAAAAAAAAAAAAAAAAAAAAAAAAAAAAAAAAAAAAAAAAAAAAAAAAAAAAAAAAAAAAAAAAAAAAAAAAAAAAAAAAAAAAAAAAAAAAAAAAAAAAAAAAAAAAAAAAAAAAAAAAAAAAAAAAAAAAAAAAAAAAAAAAAAAAAAAAAAAAAAAAAAAAAAAAAAAAAAAAAAAAAAAAAAAAAAAAAAAAAAAAAAAAAAAAAAAAAAAAAAAAAAAAAAAAAAAAAAAAAAAAAAAAAAAAAAAAAAAAAAAAAAAAAAAAAAAAAAAAAAAAAAAAAAAAAAAAAAAAAAAAAAAAAAAAAAAAAAAAAAAAAAAAAAAAAAAAAAAAAAAAAAAAAAAAAAAAAAAAAAAAAAAAAAAAAAAAAAAAAAAAAAAAAAAAAAAAAAAAAAAAAAAAAAAAAAAAAAAAAAAAAAAAAAAAAAAAAAAAAAAAAAAAAAAAAAAAAAAAAAAAAAAAAAAAAAAAAAAAAAAAAAAAAAAAAAAAAAAAAAAAAAAAAAAAAAAAAAAAAAAAAAAAAAAAAAAAAAAAAAAAAAAAAAAAAAAAAAAAAAAAAAAAAAAAAAAAAAAAAAAAAAAAAAAAAAAAAAAAAAAAAAAAAAAAAAAAAAAAAAAAAAAAAAAAAAAAAAAAAAAAAAAAAAAAAAAAAAAAAAAAAAAAAAAAAAAAAAAAAAAAAAAAAAAAAAAAAAAAAAAAAAAAAAAAAAAAAAAAAAAAAAAAAAAAAAAAAAAAAAAAAAAAAAAAAAAAAAAAAAAAAAAAAAAAAAAAAAAAAAAAAAAAAAAAAAAAAAAAAAAAAAAAAAAAAAAAAAAAAAAAAAAAAAAAAAAAAAAAAAAAAAAAAAAAAAAAAAAAAAAAAAAAAAAAAAAAAAAAAAAAAAAAAAAAAAAAAAAAAAAAAAAAAAAAAAAAAAAAAAAAAAAAAAAAAAAAAAAAAAAAAAAAAAAAAAAAAAAAAAAAAAAAAAAAAAAAAAAAAAAAAAAAAAAAAAAAAAAAAAAAAAAAAAAAAAAAAAAAAAAAAAAAAAAAAAAAAAAAAAAAAAAAAAAAAAAAAAAAAAAAAAAAAAAAAAAAAAAAAAAAAAAAAAAAAAAAAAAAAAAAAAAAAAAAAAAAAAAAAAAAAAAAAAAAAAAAAAAAAAAAAAAAAAAAAAAAAAAAAAAAAAAAAAAAAAAAAAAAAAAAAAAAAAAAAAAAAAAAAAAAAAAAAAAAAAAAAAAAAAAAAAAAAAAAAAAAAAAAAAAAAAAAAAAAAAAAAAAAAAAAAAAAAAAAAAAAAAAAAAAAAAAAAAAAAAAAAAAAAAAAAAAAAAAAAAAAAAAAAAAAAAAAAAAAAAAAAAAAAAAAAAAAAAAAAAAAAAAAAAAAAAAAAAAAAAAAAAAAAAAAAAAAAAAAAAAAAAAAAAAAAAAAAAAAAAAAAAAAAAAAAAAAAAAAAAAAAAAAAAAAAAAAAAAAAAAAAAAAAAAAAAAAAAAAAAAAAAAAAAAAAAAAAAAAAAAAAAAAAAAAAAAAAAAAAAAAAAAAAAAAAAAAAAAAAAAAAAAAAAAAAAAAAAAAAAAAAAAAAAAAAAAAAAAAAAAAAAAAAAAAAAAAAAAAAAAAAAAAAAAAAAAAAAAAAAAAAAAAAAAAAAAAAAAAAAAAAAAAAAAAAAAAAAAAAAAAAAAAAAAAAAAAAAAAAAAAAAAAAAAAAAAAAAAAAAAAAAAAAAAAAAAAAAAAAAAAAAAAAAAAAAAAAAAAAAAAAAAAAAAAAAAAAAAAAAAAAAAAAAAAAAAAAAAAAAAAAAAAAAAAAAAAAAAAAAAAAAAAAAAAAAAAAAAAAAAAAAAAAAAAAAAAAAAAAAAAAAAAAAAAAAAAAAAAAAAAAAAAAAAAAAAAAAAAAAAAAAAAAAAAAAAAAAAAAAAAAAAAAAAAAAAAAAAAAAAAAAAAAAAAAAAAAAAAAAAAAAAAAAAAAAAAAAAAAAAAAAAAAAAAAAAAAAAAAAAAAAAAAAAAAAAAAAAAAAAAAAAAAAAAAAAAAAAAAAAAAAAAAAAAAAAAAAAAAAAAAAAAAAAAAAAAAAAAAAAAAAAAAAAAAAAAAAAAAAAAAAAAAAAAAAAAAAAAAAAAAAAAAAAAAAAAAAAAAAAAAAAAAAAAAAAAAAAAAAAAAAAAAAAAAAAAAAAAAAAAAAAAAAAAAAAAAAAAAAAAAAAAAAAAAAAAAAAAAAAAAAAAAAAAAAAAAAAAAAAAAAAAAAAAAAAAAAAAAAAAAAAAAAAAAAAAAAAAAAAAAAAAAAAAAAAAAAAAAAAAAAAAAAAAAAAAAAAAAAAAAAAAAAAAAAAAAAAAAAAAAAAAAAAAAAAAAAAAAAAAAAAAAAAAAAAAAAAAAAAAAAAAAAAAAAAAAAAAAAAAAAAAAAAAAAAAAAAAAAAAAAAAAAAAAAAAAAAAAAAAAAAAAAAAAAAAAAAAAAAAAAAAAAAAAAAAAAAAAAAAAAAAAAAAAAAAAAAAAAAAAAAAAAAAAAAAAAAAAAAAAAAAAAAAAAAAAAAAAAAAAAAAAAAAAAAAAAAAAAAAAAAAAAAAAAAAAAAAAAAAAAAAAAAAAAAAAAAAAAAAAAAAAAAAAAAAAAAAAAAAAAAAAAAAAAAAAAAAAAAAAAAAAAAAAAAAAAAAAAAAAAAAAAAAAAAAAAAAAAAAAAAAAAAAAAAAAAAAAAAAAAAAAAAAAAAAAAAAAAAAAAAAAAAAAAAAAAAAAAAAAAAAAAAAAAAAAAAAAAAAAAAAAAAAAAAAAAAAAAAAAAAAAAAAAAAAAAAAAAAAAAAAAAAAAAAAAAAAAAAAAAAAAAAAAAAAAAAAAAAAAAAAAAAAAAAAAAAAAAAAAAAAAAAAAAAAAAAAAAAAAAAAAAAAAAAAAAAAAAAAAAAAAAAAAAAAAAAAAAAAAAAAAAAAAAAAAAAAAAAAAAAAAAAAAAAAAAAAAAAAAAAAAAAAAAAAAAAAAAAAAAAAAAAAAAAAAAAAAAAAAAAAAAAAAAAAAAAAAAAAAAAAAAAAAAAAAAAAAAAAAAAAAAAAAAAAAAAAAAAAAAAAAAAAAAAAAAAAAAAAAAAAAAAAAAAAAAAAAAAAAAAAAAAAAAAAAAAAAAAAAAAAAAAAAAAAAAAAAAAAAAAAAAAAAAAAAAAAAAAAAAAAAAAAAAAAAAAAAAAAAAAAAAAAAAAAAAAAAAAAAAAAAAAAAAAAAAAAAAAAAAAAAAAAAAAAAAAAAAAAAAAAAAAAAAAAAAAAAAAAAAAAAAAAAAAAAAAAAAAAAAAAAAAAAAAAAAAAAAAAAAAAAAAAAAAAAAAAAAAAAAAAAAAAAAAAAAAAAAAAAAAAAAAAAAAAAAAAAAAAAAAAAAAAAAAAAAAAAAAAAAAAAAAAAAAAAAAAAAAAAAAAAAAAAAAAAAAAAAAAAAAAAAAAAAAAAAAAAAAAAAAAAAAAAAAAAAAAAAAAAAAAAAAAAAAAAAAAAAAAAAAAAAAAAAAAAAAAAAAAAAAAAAAAAAAAAAAAAAAAAAAAAAAAAAAAAAAAAAAAAAAAAAAAAAAAAAAAAAAAAAAAAAAAAAAAAAAAAAAAAAAAAAAAAAAAAAAAAAAAAAAAAAAAAAAAAAAAAAAAAAAAAAAAAAAAAAAAAAAAAAAAAAAAAAAAAAAAAAAAAAAAAAAAAAAAAAAAAAAAAAAAAAAAAAAAAAAAAAAAAAAAAAAAAAAAAAAAAAAAAAAAAAAAAAAAAAAAAAAAAAAAAAAAAAAAAAAAAAAAAAAAAAAAAAAAAAAAAAAAAAAAAAAAAAAAAAAAAAAAAAAAAAAAAAAAAAAAAAAAAAAAAAAAAAAAAAAAAAAAAAAAAAAAAAAAAAAAAAAAAAAAAAAAAAAAAAAAAAAAAAAAAAAAAAAAAAAAAAAAAAAAAAAAAAAAAAAAAAAAAAAAAAAAAAAAAAAAAAAAAAAAAAAAAAAAAAAAAAAAAAAAAAAAAAAAAAAAAAAAAAAAAAAAAAAAAAAAAAAAAAAAAAAAAAAAAAAAAAAAAAAAAAAAAAAAAAAAAAAAAAAAAAAAAAAAAAAAAAAAAAAAAAAAAAAAAAAAAAAAAAAAAAAAAAAAAAAAAAAAAAAAAAAAAAAAAAAAAAAAAAAAAAAAAAAAAAAAAAAAAAAAAAAAAAAAAAAAAAAAAAAAAAAAAAAAAAAAAAAAAAAAAAAAAAAAAAAAAAAAAAAAAAAAAAAAAAAAAAAAAAAAAAAAAAAAAAAAAAAAAAAAAAAAAAAAAAAAAAAAAAAAAAAAAAAAAAAAAAAAAAAAAAAAAAAAAAAAAAAAAAAAAAAAAAAAAAAAAAAAAAAAAAAAAAAAAAAAAAAAAAAAAAAAAAAAAAAAAAAAAAAAAAAAAAAAAAAAAAAAAAAAAAAAAAAAAAAAAAAAAAAAAAAAAAAAAAAAAAAAAAAAAAAAAAAAAAAAAAAAAAAAAAAAAAAAAAAAAAAAAAAAAAAAAAAAAAAAAAAAAAAAAAAAAAAAAAAAAAAAAAAAAAAAAAAAAAAAAAAAAAAAAAAAAAAAAAAAAAAAAAAAAAAAAAAAAAAAAAAAAAAAAAAAAAAAAAAAAAAAAAAAAAAAAAAAAAAAAAAAAAAAAAAAAAAAAAAAAAAAAAAAAAAAAAAAAAAAAAAAAAAAAAAAAAAAAAAAAAAAAAAAAAAAAAAAAAAAAAAAAAAAAAAAAAAAAAAAAAAAAAAAAAAAAAAAAAAAAAAAAAAAAAAAAAAAAAAAAAAAAAAAAAAAAAAAAAAAAAAAAAAAAAAAAAAAAAAAAAAAAAAAAAAAAAAAAAAAAAAAAAAAAAAAAAAAAAAAAAAAAAAAAAAAAAAAAAAAAAAAAAAAAAAAAAAAAAAAAAAAAAAAAAAAAAAAAAAAAAAAAAAAAAAAAAAAAAAAAAAAAAAAAAAAAAAAAAAAAAAAAAAAAAAAAAAAAAAAAAAAAAAAAAAAAAAAAAAAAAAAAAAAAAAAAAAAAAAAAAAAAAAAAAAAAAAAAAAAAAAAAAAAAAAAAAAAAAAAAAAAAAAAAAAAAAAAAAAAAAAAAAAAAAAAAAAAAAAAAAAAAAAAAAAAAAAAAAAAAAAAAAAAAAAAAAAAAAAAAAAAAAAAAAAAAAAAAAAAAAAAAAAAAAAAAAAAAAAAAAAAAAAAAAAAAAAAAAAAAAAAAAAAAAAAAAAAAAAAAAAAAAAAAAAAAAAAAAAAAAAAAAAAAAAAAAAAAAAAAAAAAAAAAAAAAAAAAAAAAAAAAAAAAAAAAAAAAAAAAAAAAAAAAAAAAAAAAAAAAAAAAAAAAAAAAAAAAAAAAAAAAAAAAAAAAAAAAAAAAAAAAAAAAAAAAAAAAAAAAAAAAAAAAAAAAAAAAAAAAAAAAAAAAAAAAAAAAAAAAAAAAAAAAAAAAAAAAAAAAAAAAAAAAAAAAAAAAAAAAAAAAAAAAAAAAAAAAAAAAAAAAAAAAAAAAAAAAAAAAAAAAAAAAAAAAAAAAAAAAAAAAAAAAAAAAAAAAAAAAAAAAAAAAAAAAAAAAAAAAAAAAAAAAAAAAAAAAAAAAAAAAAAAAAAAAAAAAAAAAAAAAAAAAAAAAAAAAAAAAAAAAAAAAAAAAAAAAAAAAAAAAAAAAAAAAAAAAAAAAAAAAAAAAAAAAAAAAAAAAAAAAAAAAAAAAAAAAAAAAAAAAAAAAAAAAAAAAAAAAAAAAAAAAAAAAAAAAAAAAAAAAAAAAAAAAAAAAAAAAAAAAAAAAAAAAAAAAAAAAAAAAAAAAAAAAAAAAAAAAAAAAAAAAAAAAAAAAAAAAAAAAAAAAAAAAAAAAAAAAAAAAAAAAAAAAAAAAAAAAAAAAAAAAAAAAAAAAAAAAAAAAAAAAAAAAAAAAAAAAAAAAAAAAAAAAAAAAAAAAAAAAAAAAAAAAAAAAAAAAAAAAAAAAAAAAAAAAAAAAAAAAAAAAAAAAAAAAAAAAAAAAAAAAAAAAAAAAAAAAAAAAAAAAAAAAAAAAAAAAAAAAAAAAAAAAAAAAAAAAAAAAAAAAAAAAAAAAAAAAAAAAAAAAAAAAAAAAAAAAAAAAAAAAAAAAAAAAAAAAAAAAAAAAAAAAAAAAAAAAAAAAAAAAAAAAAAAAAAAAAAAAAAAAAAAAAAAAAAAAAAAAAAAAAAAAAAAAAAAAAAAAAAAAAAAAAAAAAAAAAAAAAAAAAAAAAAAAAAAAAAAAAAAAAAAAAAAAAAAAAAAAAAAAAAAAAAAAAAAAAAAAAAAAAAAAAAAAAAAAAAAAAAAAAAAAAAAAAAAAAAAAAAAAAAAAAAAAAAAAAAAAAAAAAAAAAAAAAAAAAAAAAAAAAAAAAAAAAAAAAAAAAAAAAAAAAAAAAAAAAAAAAAAAAAAAAAAAAAAAAAAAAAAAAAAAAAAAAAAAAAAAAAAAAAAAAAPZYQJ4SQW5QT2Zf4s/QiFZNjwGUVOlhDXN11LSqeyy4TURbE/BHwPjckYyWp5+lh++sXvIFuN4sQtUK1ivKis102KQ=</c2pa:manifest></metadata>
<path transform="translate(0,0)" fill="rgb(255,255,255)" d="M 0 0 L 2048 0 L 2048 2048 L 0 2048 L 0 0 z"/>
<path transform="translate(0,0)" fill="rgb(190,150,68)" d="M 1354.15 906.067 L 1563.9 905.979 L 1564.06 1290.64 L 1723.44 1290.12 L 1723.13 1323.86 L 1567.25 1324.16 L 1525.81 1324.27 L 1525.14 946.674 C 1511.62 945.499 1490.48 946.076 1476.37 946.081 L 1393.13 946.305 L 1392.85 1331.71 C 1300.2 1329.58 1202.25 1331.02 1109.33 1331.11 L 646.675 1331.19 L 646.808 946.848 C 603.477 945.681 556.566 946.432 512.996 946.445 L 513.199 1332.83 C 449.818 1333.62 384.789 1332.6 321.071 1332.91 L 321.213 1292.34 C 372.37 1291.97 423.529 1292.06 474.685 1292.6 L 474.111 906.142 L 685.928 906.078 L 686.074 1291.9 L 739.008 1291.96 L 738.856 906.766 L 1302.64 906.365 C 1304.02 949.189 1302.96 997.866 1302.95 1041.02 L 1302.79 1291.95 L 1354.11 1291.83 L 1354.15 906.067 z"/>
<path transform="translate(0,0)" fill="rgb(255,255,255)" d="M 777.391 946.523 C 803.281 945.517 833.47 946.176 859.718 946.162 L 1005.72 946.233 C 1089.83 946.486 1177.23 944.883 1260.89 946.564 L 1260.98 1291.97 L 777.675 1291.89 C 776.117 1250.59 777.055 1201.99 777.002 1160.44 L 777.391 946.523 z"/>
<path transform="translate(0,0)" fill="rgb(190,150,68)" d="M 1021.24 300.458 C 1021.69 300.642 1022.18 300.751 1022.59 301.011 C 1027.04 303.831 1038.61 387.205 1040.6 398.871 C 1068.87 429.331 1064.41 461.038 1060.25 499.286 C 1068.87 500.615 1076.03 501.845 1084.52 503.737 C 1085.48 472.155 1084.58 451.101 1107.4 428.364 C 1112.24 404.764 1119.21 359.18 1126.09 335.03 C 1126.34 334.13 1127.75 334.39 1128.99 334.349 C 1130.94 337.561 1144.31 417.324 1145.67 426.527 C 1151.85 432.892 1158.93 440.018 1163.28 447.767 C 1178.2 474.345 1172.75 511.486 1172.42 541.435 C 1275.14 610.673 1313.51 739.306 1301.01 858.004 L 1260.94 857.9 C 1261.28 840.897 1263.97 821.52 1264.8 804.28 C 1267.98 737.8 1236.42 656.134 1191.18 607.883 C 1143.26 556.783 1091.57 536.89 1023.16 534.01 C 1016.08 533.888 1007.64 534.245 1000.59 534.759 C 942.796 538.554 888.902 565.251 850.861 608.929 C 793.554 675.684 773.418 771.077 780.112 857.241 L 738.496 857.176 C 738.764 820.493 739.476 788.098 746.423 751.459 C 758.95 685.383 785.091 619.35 833.099 570.876 C 845.396 558.46 859.366 549.106 873.574 539.314 C 871.922 520.333 871.551 496.813 872.547 477.755 C 873.56 458.357 877.661 443.045 892.62 429.782 C 895.879 414.925 906.686 342.823 910.945 335.038 L 912.928 334.686 C 913.517 335.19 914.105 335.695 914.693 336.199 C 920.659 363.253 925.933 404.209 932.168 429.98 C 957.422 449.888 959.774 473.891 955.903 504.122 C 963.621 502.296 971.328 500.422 979.024 498.501 C 971.944 467.732 970.143 423.165 1000.27 404.147 C 1003.84 383.682 1008.2 362.636 1011.95 342.18 C 1013.56 333.384 1018.09 307.205 1021.24 300.458 z"/>
<path transform="translate(0,0)" fill="rgb(255,255,255)" d="M 1020.41 438.361 C 1033.47 446.086 1026.65 477.473 1027.83 490.514 C 1028.41 496.959 1024.36 495.271 1018.76 495.558 C 1018.37 495.529 1012.56 495.461 1012.43 494.61 C 1010.61 482.78 1010.6 469.031 1011.21 457.003 C 1011.68 447.614 1013.47 443.806 1020.41 438.361 z"/>
<path transform="translate(0,0)" fill="rgb(255,255,255)" d="M 912.107 464.463 C 923.409 468.672 920.793 478.459 920.986 489.001 C 921.134 497.129 920.834 505.343 920.915 513.506 C 917.399 515.048 913.849 516.313 910.284 517.744 C 910.274 517.748 905.341 520.112 905.184 518.858 C 903.897 508.58 903.868 496.978 904.208 486.5 C 904.562 475.578 904.379 471.594 912.107 464.463 z"/>
<path transform="translate(0,0)" fill="rgb(255,255,255)" d="M 1127.01 465.79 C 1128.49 465.868 1132.48 465.546 1133.88 467.154 C 1137.43 471.209 1136.98 475.924 1136.99 481.451 C 1137.02 492.557 1136.77 504.535 1136.85 515.713 C 1136.87 518.573 1136.68 519.612 1133.78 518.309 C 1129.91 516.847 1126.43 515.341 1122.65 513.726 L 1120.91 512.997 C 1120.61 500.909 1120.75 488.584 1120.84 476.483 C 1120.89 470.713 1123.05 469.313 1127.01 465.79 z"/>
<path transform="translate(0,0)" fill="rgb(190,150,68)" d="M 323.03 1477.08 C 364.845 1476.89 407.076 1476.44 448.775 1476.83 C 475.836 1477.53 506.605 1481.53 525.98 1502.53 C 552.157 1530.92 549.873 1580.88 520.846 1606.61 C 488.863 1634.95 451.997 1628.86 412.989 1626.78 L 412.961 1682.5 C 412.871 1691.91 411.809 1710.37 414.352 1718.56 C 419.865 1736.29 446.035 1731.47 450.879 1733.77 C 451.16 1738.53 451.734 1736.48 449.738 1740.27 C 443.504 1744.05 434.614 1741.85 427.428 1741.86 C 404.729 1741.89 381.951 1742.05 359.254 1741.84 C 348.623 1741.74 333.399 1742.61 323.215 1740.86 L 321.82 1738.75 C 321.908 1728.31 351.947 1733.62 354.39 1725.1 C 359.055 1708.84 356.906 1670.76 356.952 1654.82 L 356.92 1559.92 C 356.895 1542.81 358.014 1514.97 354.95 1498.49 C 352.566 1485.66 333.72 1489.31 324.353 1485 C 322.163 1482.05 322.996 1481.76 323.03 1477.08 z"/>
<path transform="translate(0,0)" fill="rgb(255,255,255)" d="M 413.055 1485.06 C 449.477 1484.87 478.475 1491.74 485.192 1535.07 C 489.026 1559.8 486.407 1585.28 471.281 1606.03 C 455.265 1621.99 433.905 1619.55 413.137 1618.96 L 413.055 1485.06 z"/>
<path transform="translate(0,0)" fill="rgb(190,150,68)" d="M 1150.06 1476.06 L 1174.72 1475.98 C 1196.41 1532.24 1217.5 1588.74 1238 1645.45 C 1245.96 1666.82 1253.19 1688.46 1261.66 1709.65 C 1269.69 1729.73 1275.07 1732.52 1296.13 1733.2 C 1296.07 1736.5 1296.12 1738.58 1296.35 1741.88 L 1217.3 1742.17 C 1207.98 1742.21 1184.03 1742.87 1176.1 1741.46 C 1174.64 1738.83 1175.26 1738.5 1175.42 1734.94 C 1184.24 1727.96 1214.17 1741.65 1202.08 1706.87 C 1194.91 1686.25 1187.15 1665.4 1179.65 1644.88 L 1096.41 1644.86 C 1088.34 1664.28 1081.11 1684.68 1073.95 1704.44 C 1062.98 1734.73 1080.79 1730.36 1101.8 1733.66 C 1104.01 1736.57 1103.47 1735.01 1103.8 1738.37 L 1102.13 1740.25 C 1099.85 1741.18 1096.03 1742.32 1093.75 1742.14 C 1084.17 1741.38 1029.34 1743 1024.21 1741.02 L 1023.67 1737.78 C 1027.03 1731.44 1037.63 1732.85 1044.33 1729.75 C 1058.34 1723.28 1062.13 1705.52 1067.38 1691.84 L 1087.61 1638.73 L 1150.06 1476.06 z"/>
<path transform="translate(0,0)" fill="rgb(255,255,255)" d="M 1138.28 1535.65 C 1140.8 1538.04 1172.48 1624.32 1175.32 1633.81 L 1175.9 1635.61 C 1163.95 1636.19 1151.69 1636.05 1139.7 1636.06 C 1126.6 1636.1 1113.5 1636.01 1100.39 1635.81 L 1123.35 1575.14 C 1127.91 1562.89 1133.01 1547.27 1138.28 1535.65 z"/>
<path transform="translate(0,0)" fill="rgb(190,150,68)" d="M 650.93 1476.05 L 675.149 1475.94 C 690.111 1520.4 708.469 1564.93 724.162 1609.53 C 736.847 1643.4 748.952 1677.5 761.968 1711.24 C 769.433 1730.59 778.092 1732.84 797.918 1733.02 C 798.015 1736.44 798.619 1739.46 797.294 1742.34 C 789.059 1741.57 774.246 1741.96 765.345 1741.95 L 706.423 1741.95 C 698.596 1741.95 683.148 1742.34 676.041 1741.37 C 675.012 1737.67 675.173 1737.72 675.715 1734.09 C 679.883 1731.46 688.753 1732.52 693.925 1731.77 C 697.489 1731.24 701.675 1729.73 703.646 1726.5 C 709.392 1717.06 684.02 1657.89 679.206 1644.9 L 595.909 1644.83 C 594.891 1647.2 593.918 1649.58 592.989 1651.99 C 588.385 1664.02 566.683 1714.18 571.616 1726.05 C 575.146 1734.53 593.772 1731.5 600.562 1733.96 C 601.756 1736.69 601.679 1736.49 601.176 1739.45 C 599.657 1740.99 597.282 1742.79 595.165 1742.39 C 585.347 1740.55 530.981 1744.03 525.961 1740.03 L 525.687 1736.99 C 532.47 1727.01 547.985 1738.25 557.605 1716.33 C 565.284 1698.83 571.613 1680.32 578.353 1662.44 L 620.367 1550.96 C 628.112 1530.46 641.285 1494.65 650.93 1476.05 z"/>
<path transform="translate(0,0)" fill="rgb(255,255,255)" d="M 636.884 1535.44 C 642.402 1541.9 671.197 1622.66 676.088 1635.92 L 638.5 1635.87 L 599.57 1635.82 C 608.629 1612.81 617.113 1589.5 625.462 1566.23 C 629.099 1556.1 633.934 1545.75 636.884 1535.44 z"/>
<path transform="translate(0,0)" fill="rgb(190,150,68)" d="M 1567.09 1476.51 L 1721.22 1476.49 C 1722.65 1495.81 1722.95 1515.47 1724.19 1534.84 C 1724.69 1542.63 1727.22 1567.56 1722.13 1572.11 C 1715.31 1570.3 1715.46 1556.96 1713.7 1550.96 C 1702.32 1512.31 1682.9 1489.28 1641.97 1485.95 C 1640.9 1563.19 1640.52 1642.62 1642.99 1719.76 C 1643.42 1733.23 1672.96 1731.23 1680.43 1734.89 C 1682.8 1738.01 1682.18 1736.3 1682.31 1740.25 C 1676.81 1743.09 1655.72 1742.02 1648.5 1741.94 C 1634.69 1741.92 1543.64 1743.7 1538.34 1740.48 C 1536.07 1739.09 1536.17 1738.45 1535.53 1736.01 C 1540.01 1728.96 1572.22 1736.92 1579.91 1726 C 1587.18 1715.67 1585.13 1701.32 1585.16 1689.03 L 1585.18 1641.52 L 1585.01 1485.56 C 1545.07 1488.41 1523.08 1510.66 1511.8 1548.46 C 1510.01 1554.47 1509.69 1565.75 1506.54 1570.66 C 1502.42 1571.12 1504.29 1571.45 1500.67 1569.94 C 1496.86 1564.64 1499.75 1547.38 1500.13 1540.1 C 1501.37 1519.01 1502.34 1497.9 1503.05 1476.79 L 1567.09 1476.51 z"/>
<path transform="translate(0,0)" fill="rgb(190,150,68)" d="M 1298.52 1734.03 L 1303.36 1681.17 C 1304.01 1673.91 1303.68 1658.53 1307.95 1653.33 C 1310.98 1652.32 1309.4 1652.45 1312.86 1653.55 C 1314.85 1657.77 1316.64 1668.71 1318.02 1674.41 C 1327.34 1712.85 1374.36 1749.92 1414.96 1729.37 C 1426.2 1723.56 1434.62 1713.46 1438.32 1701.37 C 1441.79 1689.89 1441.4 1675.26 1435.36 1664.62 C 1413.23 1625.64 1328.24 1635.74 1308.47 1575.41 C 1303.68 1560.78 1304.02 1544.47 1307.65 1529.62 C 1312.52 1509.75 1323.87 1492.69 1341.53 1482.06 C 1359.52 1471.24 1382.42 1468.63 1402.69 1473.81 C 1415.39 1477.05 1441.2 1494.71 1453.18 1488.57 C 1460.37 1484.89 1458.27 1475.29 1467.24 1474.18 C 1468.66 1475.36 1468.45 1474.7 1468.57 1476.07 C 1469.41 1485.47 1465.1 1553.11 1462.09 1558.22 C 1461.64 1558.99 1461.25 1559.2 1460.6 1559.66 C 1458.67 1559.26 1458.09 1559.5 1456.82 1557.21 C 1453.83 1551.82 1453.08 1543.28 1451.19 1537.41 C 1443.63 1513.84 1425.66 1490.32 1400.58 1484.52 C 1386.85 1481.35 1369.35 1482.12 1357.81 1490.3 C 1347.43 1497.66 1341.42 1503.08 1339.14 1516.01 C 1337.31 1526.39 1338.27 1535.17 1344.38 1543.98 C 1354.55 1558.67 1373.05 1565.5 1389.12 1571.64 C 1445.75 1593.32 1493.39 1604.77 1483.38 1677.72 C 1480.3 1700.21 1468.01 1717.77 1449.62 1731.21 C 1426.72 1747.94 1395.06 1749.62 1367.89 1745.24 C 1359.61 1744.21 1351.83 1740.96 1343.92 1739 C 1335.38 1736.88 1319.68 1726.95 1311.59 1732.75 C 1305.34 1737.23 1308.23 1748.64 1297.36 1747.21 C 1297.05 1745.18 1296.86 1743.88 1296.35 1741.88 C 1296.12 1738.58 1296.07 1736.5 1296.13 1733.2 L 1298.52 1734.03 z"/>
<path transform="translate(0,0)" fill="rgb(239,229,217)" d="M 1296.13 1733.2 L 1298.52 1734.03 C 1298.18 1738.73 1297.96 1742.5 1297.36 1747.21 C 1297.05 1745.18 1296.86 1743.88 1296.35 1741.88 C 1296.12 1738.58 1296.07 1736.5 1296.13 1733.2 z"/>
<path transform="translate(0,0)" fill="rgb(190,150,68)" d="M 1354.27 653.018 L 1563.84 653.081 L 1563.98 859.012 L 1525.57 859.029 L 1525.27 728.726 L 1525.11 690.867 C 1480.83 690.322 1435.4 690.784 1391.02 690.716 L 1391.05 859.049 L 1354.06 858.983 L 1354.27 653.018 z"/>
<path transform="translate(0,0)" fill="rgb(190,150,68)" d="M 474.222 654.384 C 544.027 653.195 615.82 654.007 685.766 654.004 C 686.046 722.157 685.98 790.311 685.569 858.463 L 649.094 858.008 L 649.607 726.5 L 649.754 690.842 L 512.031 690.598 L 511.904 858.295 C 500.005 858.829 486.26 858.638 474.225 858.739 L 474.222 654.384 z"/>
<path transform="translate(0,0)" fill="rgb(190,150,68)" d="M 802.115 1732.96 C 829.132 1732.38 838.719 1732.56 838.572 1702.89 C 838.264 1640.95 839.132 1579.04 838.701 1517.1 C 838.633 1507.29 838.988 1500.82 833.072 1492.48 C 826.061 1482.59 797.857 1491.5 804.774 1477.34 C 812.488 1476.26 847.94 1476.54 856.979 1476.79 C 878.109 1477.38 909.122 1475.49 929.389 1477.58 L 931.295 1480.59 C 930.702 1482.36 930.602 1482.9 928.842 1483.85 C 917.79 1489.81 901.189 1484.84 895.67 1500.18 C 893.446 1506.37 894.265 1685.2 894.939 1705.6 C 895.106 1710.65 895.403 1718.82 897.717 1723.32 C 900.007 1727.77 906.994 1730.01 911.498 1730.86 C 932.253 1734.74 960.664 1731.52 978.091 1719.05 C 993.117 1708.3 1003.12 1690.32 1008.77 1673.06 C 1010.34 1668.23 1011.07 1662.63 1013.16 1658.03 C 1014.03 1656.13 1015.12 1655.01 1016.89 1653.95 C 1024.27 1658.53 1019.29 1730.26 1018.45 1742.01 C 974.542 1741.8 930.63 1741.89 886.719 1742.26 C 884.777 1744.03 800.629 1744.06 797.294 1742.34 C 798.619 1739.46 798.015 1736.44 797.918 1733.02 C 799.317 1732.98 800.716 1732.96 802.115 1732.96 z"/>
<path transform="translate(0,0)" fill="rgb(255,255,255)" d="M 797.918 1733.02 C 799.317 1732.98 800.716 1732.96 802.115 1732.96 C 802.099 1734.18 801.623 1741.64 802.614 1741.7 C 827.771 1743.41 862.585 1740.91 886.719 1742.26 C 884.777 1744.03 800.629 1744.06 797.294 1742.34 C 798.619 1739.46 798.015 1736.44 797.918 1733.02 z"/>
<path transform="translate(0,0)" fill="rgb(30,27,27)" d="M 1655.58 1409.94 C 1662.14 1410.11 1678.46 1411.58 1683.1 1408.19 C 1685.67 1403 1684.95 1396.74 1684.65 1391.13 C 1683.81 1375.82 1683.92 1360.69 1680.7 1345.61 C 1680.31 1343.8 1685.53 1337.03 1686.8 1335.33 C 1697.27 1353.05 1692.98 1346.2 1691.13 1365.4 C 1689.69 1380.28 1699.42 1408.87 1683.58 1419.09 C 1674.07 1424.42 1653.03 1419.69 1643.25 1415.86 C 1631.08 1421.81 1622.11 1421 1608.98 1420.51 C 1605.02 1417.74 1602.85 1416.09 1599.25 1412.87 C 1575.87 1419.81 1548.39 1425.31 1524.33 1418.44 C 1521.95 1429.01 1517.91 1438.93 1508.03 1444.87 C 1502.49 1448.2 1495.82 1449.07 1489.61 1447.28 C 1484.34 1445.78 1480.59 1443.77 1475.94 1441.01 L 1478.56 1438.53 C 1493.69 1440.09 1513.57 1437.04 1516.99 1418.28 C 1518.16 1411.91 1512.88 1405.59 1509.12 1400.76 L 1514.97 1391.61 C 1517.99 1396.32 1523.02 1404.67 1526.56 1408.56 C 1532.58 1409.57 1539.45 1411.59 1544.68 1408.8 C 1546.93 1406.04 1547.13 1404.7 1546.79 1401.17 C 1546.5 1398.47 1546.15 1395.78 1545.75 1393.1 C 1549.79 1388.43 1551.28 1386.84 1556 1382.77 C 1555.12 1388.66 1554.07 1394.94 1553.36 1400.82 C 1577.31 1377.02 1601.99 1365.56 1608.91 1408.44 C 1609.45 1411.75 1631.1 1409.64 1634.46 1409.37 C 1619.3 1394.19 1628.43 1375.78 1645.98 1368.1 C 1666.03 1377.69 1664.4 1391.92 1655.58 1409.94 z"/>
<path transform="translate(0,0)" fill="rgb(255,255,255)" d="M 1578.67 1391.06 C 1581.98 1390.96 1601.48 1392.71 1598.85 1401.45 C 1597.69 1405.3 1578.52 1408.84 1573.23 1409.75 C 1564.75 1410.78 1561.18 1410.71 1552.83 1410.31 C 1561.26 1399.56 1565.4 1395.75 1578.67 1391.06 z"/>
<path transform="translate(0,0)" fill="rgb(255,255,255)" d="M 1639.88 1380.85 C 1644.45 1381.11 1647.81 1381.02 1651.12 1384.92 C 1653.59 1387.87 1654.72 1391.7 1654.24 1395.51 C 1653.84 1398.79 1652.4 1400.9 1649.71 1402.77 L 1648.29 1403.8 C 1633.72 1401.53 1627.41 1391.27 1639.88 1380.85 z"/>
<path transform="translate(0,0)" fill="rgb(190,150,68)" d="M 1439.05 764.109 C 1451.7 764.021 1464.34 764.005 1476.99 764.061 C 1477.06 791.089 1477.43 819.852 1476.9 846.766 C 1464.28 846.772 1451.66 846.689 1439.04 846.516 L 1439.05 764.109 z"/>
<path transform="translate(0,0)" fill="rgb(190,150,68)" d="M 562.756 763.957 C 575.177 763.859 587.598 763.827 600.02 763.861 C 600.319 791.069 600.114 818.93 599.989 846.165 C 587.861 846.611 574.81 846.33 562.536 846.459 C 562.803 818.959 562.876 791.458 562.756 763.957 z"/>
<path transform="translate(0,0)" fill="rgb(30,27,27)" d="M 1709.73 1349.78 C 1712.7 1344.71 1714.77 1341.73 1718.1 1336.96 C 1718.1 1358.3 1719.96 1380.11 1720.67 1401.5 C 1720.95 1409.84 1719.3 1411.78 1717.31 1419.12 C 1715.4 1421.39 1713.81 1423.58 1713.34 1419.17 C 1714.93 1405.4 1711.48 1364.58 1709.73 1349.78 z"/>
<path transform="translate(0,0)" fill="rgb(59,40,38)" d="M 1713.34 1419.17 C 1714.48 1419 1716.12 1419.1 1717.31 1419.12 C 1715.4 1421.39 1713.81 1423.58 1713.34 1419.17 z"/>
<path transform="translate(0,0)" fill="rgb(30,27,27)" d="M 1649.34 1341.22 C 1652.2 1344.04 1655.4 1346.85 1658.1 1349.68 C 1655.34 1352.76 1653.09 1355.2 1650.64 1358.59 C 1648.97 1356.49 1645.06 1350.82 1641.46 1351.78 C 1639.18 1352.61 1638.02 1355.82 1636.95 1357.59 C 1635.71 1359.67 1634.34 1358.03 1633.3 1356.72 C 1632.04 1355.14 1630.82 1353.13 1628.78 1352.33 C 1628.38 1352.17 1626.26 1351.41 1626.51 1350.42 C 1627.88 1347.44 1632.11 1344.14 1634.48 1342.1 C 1637.55 1344.52 1638.9 1346.84 1641.25 1349.89 C 1644.04 1346.79 1646.42 1344.2 1649.34 1341.22 z"/>
<path transform="translate(0,0)" fill="rgb(59,40,38)" d="M 1475.94 1441.01 C 1474.47 1440.07 1472.87 1439.25 1471.6 1438.07 C 1471.19 1437.87 1470.9 1436.67 1471.52 1436.58 C 1473.45 1436.31 1476.74 1437.92 1478.56 1438.53 L 1475.94 1441.01 z"/>
</svg>